<svg width="184" height="130" viewBox="0 0 184 130" fill="none" xmlns="http://www.w3.org/2000/svg">
<path d="M99.9614 0C89.8783 0 80.8624 4.64803 74.937 11.9126H82.7703C82.8485 11.8467 82.9268 11.7808 83.0093 11.719C83.1741 11.5789 83.3389 11.4429 83.5078 11.3151C83.6727 11.1833 83.8416 11.0514 84.0147 10.9278C84.0476 10.899 84.0806 10.8742 84.1177 10.8495C84.4226 10.6229 84.7358 10.4004 85.0531 10.1861C85.3703 9.97182 85.6918 9.76579 86.0173 9.56801C86.1162 9.5062 86.2151 9.44439 86.3181 9.3867C86.4417 9.30841 86.5695 9.23425 86.6972 9.1642C86.8826 9.05706 87.068 8.94992 87.2576 8.85103C87.4471 8.74801 87.6367 8.64499 87.8303 8.55022C88.1064 8.41012 88.3784 8.27415 88.6586 8.14229C88.8234 8.064 88.9882 7.98983 89.1572 7.91566C89.4085 7.8044 89.6558 7.69727 89.9112 7.59425C90.1626 7.49124 90.4139 7.39234 90.6735 7.29757C91.0362 7.16571 91.4029 7.03797 91.7737 6.91847C91.9592 6.86078 92.1446 6.8031 92.33 6.74541C92.4825 6.70009 92.6349 6.65888 92.7874 6.61355C95.0785 5.9831 97.4849 5.64109 99.9614 5.64109C102.607 5.64109 105.174 6.0243 107.605 6.74953C107.766 6.79897 107.926 6.84843 108.087 6.89787C108.256 6.95144 108.429 7.00913 108.598 7.06682C108.961 7.19044 109.319 7.32229 109.674 7.46239C109.851 7.53244 110.028 7.60249 110.205 7.67666C110.378 7.74671 110.555 7.825 110.728 7.89917C110.848 7.95274 110.963 8.00219 111.079 8.05576C111.223 8.12581 111.367 8.19174 111.511 8.26179C111.705 8.35656 111.899 8.45133 112.092 8.55022C112.476 8.74389 112.855 8.94993 113.226 9.1642C113.411 9.26721 113.596 9.37434 113.778 9.48971C113.959 9.59685 114.14 9.71223 114.322 9.83173C114.503 9.94299 114.68 10.0584 114.857 10.182C115.034 10.2974 115.212 10.421 115.385 10.5487C115.574 10.6847 115.764 10.8207 115.949 10.9649C116.077 11.0555 116.205 11.1503 116.328 11.2492C116.493 11.377 116.658 11.5047 116.819 11.6407C117.437 12.1393 118.034 12.6708 118.603 13.2395C118.891 13.5114 119.172 13.7999 119.443 14.0965C119.72 14.3891 119.987 14.6858 120.243 14.9948C120.379 15.1473 120.507 15.2997 120.626 15.4563C120.758 15.6088 120.882 15.7654 121.001 15.922C121.211 16.1898 121.417 16.4659 121.615 16.7461C121.768 16.9562 121.916 17.1664 122.06 17.3848C122.303 17.7391 122.534 18.0976 122.752 18.4644C122.864 18.6457 122.975 18.8311 123.078 19.0165C123.185 19.202 123.292 19.3915 123.391 19.581C123.675 20.0961 123.939 20.6277 124.186 21.1675C124.343 21.5177 124.495 21.8721 124.644 22.2306C124.726 22.4325 124.808 22.6344 124.883 22.8404C124.961 23.0465 125.035 23.2525 125.105 23.4585C125.254 23.8829 125.389 24.3156 125.517 24.7524C125.563 24.909 125.608 25.0655 125.649 25.2221C125.682 25.3457 125.715 25.4735 125.748 25.5971C125.797 25.7867 125.843 25.9762 125.888 26.1657C125.979 26.5448 126.057 26.928 126.131 27.3154C122.546 25.593 118.928 24.1096 115.368 22.8899C112.525 21.9133 110.955 21.526 110.024 21.3158C106.744 20.5865 103.357 20.2651 99.9614 20.3598C96.5619 20.2651 93.1747 20.5865 89.8947 21.3158C88.9635 21.526 87.3936 21.9133 84.5545 22.8899C80.9902 24.1096 77.3723 25.593 73.7874 27.3154C73.8409 27.0393 73.8945 26.7673 73.9563 26.4954C73.9604 26.4665 73.9687 26.4418 73.9769 26.413C74.0016 26.2935 74.0264 26.174 74.0552 26.0586C73.9893 26.3182 73.9275 26.5819 73.8739 26.8456C74.1582 25.4364 74.562 24.0684 75.073 22.7498C75.1266 22.6056 75.1842 22.4613 75.2461 22.313C75.2749 22.2429 75.3038 22.1729 75.3326 22.1028C75.382 21.9792 75.4315 21.8556 75.4851 21.7361C75.5057 21.6825 75.5263 21.6331 75.551 21.5795C75.5716 21.526 75.5963 21.4765 75.621 21.4229C75.7117 21.2169 75.8065 21.015 75.9012 20.8131C75.9837 20.6442 76.0619 20.4793 76.1444 20.3145C76.2185 20.1703 76.2927 20.0302 76.3669 19.886C76.4451 19.7335 76.5276 19.5852 76.61 19.4327H70.3508C69.9058 20.4505 69.5143 21.4971 69.1723 22.5685C68.9127 23.3885 68.6861 24.2249 68.4924 25.0738C68.138 26.5984 67.8991 28.1683 67.7754 29.7754C67.759 29.9814 67.7466 30.1915 67.7342 30.4017C67.6971 31.0239 67.6807 31.6502 67.6807 32.2807C67.6807 32.4908 67.6807 32.6969 67.6889 32.907C67.7177 34.6129 67.8826 36.29 68.1751 37.9218H73.911H73.9275C73.7956 37.3367 73.6885 36.7433 73.6061 36.1417C75.5716 36.2406 77.5783 36.4178 79.5686 36.6691C83.0134 37.1018 84.5998 37.3243 86.0667 38.0495C89.8247 39.912 91.4317 43.6 92.6061 46.2907C94.242 50.0281 94.9466 54.0992 94.7158 58.4052C94.4233 58.3475 94.1348 58.2857 93.8464 58.2157C93.6321 58.1662 93.4179 58.1127 93.2077 58.055C93.0882 58.0302 92.9687 57.9973 92.8533 57.9602C92.6185 57.8984 92.3836 57.8325 92.1528 57.7624C92.1405 57.7624 92.1322 57.7583 92.1199 57.7542C91.5677 57.5852 91.0238 57.3998 90.4881 57.1938C90.4263 57.1732 90.3604 57.1484 90.2986 57.1196C90.142 57.0619 89.9854 57.0001 89.8329 56.9342C89.8288 56.9301 89.8206 56.93 89.8165 56.9259C89.8082 56.9218 89.8041 56.9218 89.7959 56.9177C89.7629 56.9053 89.7299 56.8888 89.697 56.8765C89.6887 56.8724 89.6805 56.8683 89.6722 56.8683C89.5527 56.8188 89.4333 56.7652 89.3179 56.7158C89.219 56.6746 89.1242 56.6292 89.0294 56.588C89.0006 56.5757 88.9759 56.5633 88.947 56.551C88.9223 56.5386 88.8934 56.5262 88.8687 56.5139C88.8399 56.5015 88.811 56.4892 88.7822 56.4768C88.741 56.4562 88.7039 56.4397 88.6627 56.4191C88.6503 56.415 88.6421 56.4109 88.6297 56.4026C88.4526 56.3202 88.2795 56.2378 88.1064 56.1513C87.4348 55.8216 86.7796 55.459 86.1409 55.0717C85.9596 54.9645 85.7783 54.8491 85.597 54.7338C85.5929 54.7338 85.5887 54.7297 85.5887 54.7297C85.4116 54.6143 85.2344 54.4989 85.0613 54.3794C84.7069 54.1445 84.3567 53.8973 84.0147 53.6377C83.6892 53.3946 83.3677 53.1432 83.0546 52.8836C82.9145 52.7724 82.7785 52.6611 82.6466 52.5416C82.6384 52.5375 82.6302 52.5293 82.6219 52.521C82.4736 52.3974 82.3294 52.2697 82.1851 52.1378C82.0368 52.0101 81.8926 51.8782 81.7484 51.7381C81.6 51.6063 81.4599 51.4703 81.3198 51.3302C81.0355 51.0541 80.7594 50.7739 80.4957 50.4855C80.3556 50.3412 80.2237 50.197 80.096 50.0487C80.0259 49.9786 79.9641 49.9045 79.8982 49.8303H72.8767C73.227 50.366 73.5855 50.8893 73.9646 51.4002C74.6074 52.2697 75.2873 53.1062 76.0125 53.9056C76.8119 54.7874 77.6566 55.6279 78.5467 56.415C84.2495 61.4833 91.749 64.5614 99.9614 64.5614C117.758 64.5614 132.238 50.0816 132.238 32.2807C132.238 14.4839 117.758 0 99.9614 0ZM73.4371 27.4802H73.4413C73.433 27.5049 73.4289 27.5338 73.4248 27.5585L73.4371 27.4802ZM73.5031 29.0872C73.5607 28.5639 73.639 28.0447 73.7379 27.5297C73.6473 28.0447 73.5649 28.5639 73.5031 29.0872ZM80.0589 33.2202C78.8475 33.2202 77.8668 32.2395 77.8668 31.028C77.8668 29.8166 78.8475 28.8359 80.0589 28.8359C81.2704 28.8359 82.2511 29.8166 82.2511 31.028C82.2511 32.2395 81.2704 33.2202 80.0589 33.2202ZM126.481 27.4802L126.486 27.5091C126.481 27.4967 126.481 27.4884 126.477 27.4802H126.481ZM119.547 28.8359C120.758 28.8359 121.743 29.8166 121.743 31.028C121.743 32.2395 120.758 33.2202 119.547 33.2202C118.339 33.2202 117.354 32.2395 117.354 31.028C117.354 29.8166 118.339 28.8359 119.547 28.8359ZM93.0635 32.5939C93.0635 28.7947 96.1581 25.7001 99.9614 25.7001C103.761 25.7001 106.855 28.7947 106.855 32.5939C106.855 36.3972 103.761 39.4917 99.9614 39.4917C96.1581 39.4917 93.0635 36.3972 93.0635 32.5939ZM106.023 58.2322C106.381 58.1456 106.74 58.055 107.094 57.9561C106.74 58.055 106.385 58.1498 106.023 58.2322ZM124.644 42.3226C124.64 42.3391 124.631 42.3555 124.627 42.3679C124.623 42.3761 124.619 42.3844 124.615 42.3926C124.499 42.6893 124.376 42.9777 124.24 43.2662C124.223 43.3033 124.207 43.3445 124.186 43.3816C124.129 43.5134 124.071 43.6412 124.005 43.773C123.997 43.7854 123.993 43.7977 123.984 43.8101C123.976 43.8307 123.968 43.8513 123.956 43.8719C123.947 43.8925 123.939 43.909 123.931 43.9255C123.857 44.0738 123.787 44.2222 123.712 44.3664C123.712 44.3705 123.712 44.3705 123.712 44.3705C123.708 44.3746 123.708 44.3746 123.708 44.3746C123.704 44.3787 123.704 44.3829 123.7 44.387C123.696 44.3952 123.692 44.3993 123.688 44.4076V44.4117C123.601 44.5848 123.515 44.7537 123.424 44.9185C123.342 45.0669 123.263 45.2152 123.181 45.3594C123.098 45.5078 123.012 45.6561 122.925 45.8004C122.761 46.0847 122.588 46.369 122.41 46.6451C121.949 47.3662 121.454 48.0625 120.927 48.7342C120.803 48.8908 120.68 49.0474 120.552 49.1998C120.519 49.241 120.486 49.2781 120.453 49.3152C120.424 49.3482 120.399 49.3853 120.371 49.4182C120.255 49.5624 120.132 49.7025 120.004 49.8426C119.851 50.024 119.691 50.2011 119.522 50.3783C119.365 50.5555 119.2 50.7286 119.027 50.8975C118.867 51.0706 118.698 51.2395 118.525 51.4043H118.52C118.347 51.5774 118.174 51.7422 117.997 51.8988C117.82 52.0636 117.643 52.2243 117.461 52.3809C117.28 52.5375 117.099 52.6941 116.913 52.8465C116.588 53.1185 116.25 53.3822 115.908 53.6377C115.908 53.6377 115.908 53.6377 115.904 53.6377C115.562 53.8932 115.216 54.1445 114.857 54.3794C114.371 54.7091 113.872 55.0222 113.366 55.3189C113.238 55.3931 113.11 55.4631 112.982 55.5373C112.818 55.6279 112.653 55.7186 112.488 55.8051C112.208 55.9535 111.923 56.1018 111.635 56.2378C111.347 56.3779 111.058 56.5139 110.766 56.6416C109.604 57.1649 108.392 57.5935 107.148 57.9396C107.185 57.9314 107.222 57.919 107.259 57.9066C107.111 57.9478 106.962 57.9891 106.814 58.0261C106.6 58.0838 106.385 58.1374 106.167 58.1909C105.85 58.2651 105.528 58.3352 105.203 58.4011C104.972 54.0992 105.681 50.024 107.312 46.2907C108.487 43.6 110.094 39.912 113.852 38.0495C115.319 37.3243 116.905 37.1018 120.35 36.6691C122.34 36.4178 124.347 36.2406 126.312 36.1417C126.263 36.4837 126.205 36.8216 126.144 37.1595C126.127 37.2584 126.106 37.3573 126.086 37.4562C126.024 37.7899 125.95 38.1237 125.872 38.4533C125.781 38.8572 125.674 39.2527 125.563 39.6483C125.554 39.6813 125.542 39.7142 125.534 39.7472C125.53 39.7637 125.521 39.7843 125.517 39.8008C125.46 39.9944 125.406 40.184 125.344 40.3777C125.266 40.6166 125.188 40.8556 125.105 41.0905C125.089 41.1441 125.068 41.1976 125.052 41.2471C125.15 40.9916 125.237 40.732 125.324 40.4724C125.122 41.0987 124.899 41.721 124.644 42.3226ZM126.634 36.1252C126.638 36.0799 126.646 36.0387 126.65 35.9975L126.638 36.1252H126.634Z" fill="white"/>
<path d="M107.51 57.8369C107.692 57.7833 107.873 57.7257 108.054 57.668C107.828 57.738 107.601 57.8039 107.374 57.874C107.42 57.8658 107.465 57.8534 107.51 57.8369Z" fill="white"/>
<path d="M74.2733 25.21C74.2321 25.3542 74.1909 25.5025 74.158 25.6509C74.1621 25.6303 74.1662 25.6138 74.1744 25.5932C74.2033 25.4654 74.2362 25.3377 74.2733 25.21Z" fill="white"/>
<path d="M106.814 58.0258C106.962 57.9887 107.111 57.9475 107.259 57.9062C107.214 57.9227 107.164 57.9351 107.119 57.9475C107.016 57.9722 106.917 58.001 106.814 58.0258Z" fill="white"/>
<path d="M107.374 57.874C107.601 57.8039 107.828 57.738 108.054 57.668C107.873 57.7257 107.692 57.7833 107.51 57.8369C107.465 57.8534 107.42 57.8658 107.374 57.874Z" fill="white"/>
<path d="M75.5511 21.5794C75.5717 21.5259 75.5964 21.4764 75.6211 21.4229C75.5552 21.5794 75.4893 21.736 75.4233 21.8926C75.4604 21.7855 75.5058 21.6825 75.5511 21.5794Z" fill="white"/>
<path d="M99.9613 5.63281C102.615 5.63281 105.182 6.02014 107.605 6.74949C105.174 6.02426 102.607 5.64105 99.9613 5.64105C97.4848 5.64105 95.0784 5.98306 92.7874 6.61351C95.0702 5.97482 97.4766 5.63281 99.9613 5.63281Z" fill="white"/>
<path d="M124.186 21.1675C124.347 21.5177 124.504 21.8721 124.644 22.2306C124.495 21.8721 124.343 21.5177 124.186 21.1675Z" fill="white"/>
<path d="M43.9832 126.832L42.8542 129.395H40.8228L45.7922 118.121H47.8236L52.7931 129.395H50.7616L49.6326 126.832H43.9832ZM48.8579 125.072L46.81 120.428L44.762 125.072H48.8579Z" fill="white"/>
<path d="M63.1934 125.46V120.816H64.9983V129.395H63.1934V127.829C62.9009 128.357 62.5012 128.769 61.9902 129.069C61.4793 129.37 60.9271 129.523 60.3379 129.523C59.3695 129.523 58.5866 129.226 57.9891 128.637C57.3917 128.048 57.095 127.19 57.095 126.074V120.816H58.8998V125.526C58.8998 127.108 59.555 127.895 60.8694 127.895C61.4916 127.895 62.0356 127.689 62.4971 127.273C62.9627 126.861 63.1934 126.259 63.1934 125.46Z" fill="white"/>
<path d="M73.0665 122.266V126.621C73.0665 127.029 73.1736 127.355 73.3879 127.598C73.6022 127.841 73.903 127.961 74.2903 127.961C74.6776 127.961 75.0485 127.771 75.4029 127.396L76.1446 128.669C75.51 129.238 74.8095 129.526 74.0389 129.526C73.2684 129.526 72.6132 129.259 72.0693 128.727C71.5254 128.195 71.2534 127.478 71.2534 126.572V122.266H70.1738V120.815H71.2534V118.121H73.0582V120.815H75.3163V122.266H73.0665Z" fill="white"/>
<path d="M87.9211 128.245C87.0599 129.098 85.9844 129.526 84.6946 129.526C83.4049 129.526 82.3294 129.098 81.4682 128.245C80.607 127.392 80.1785 126.345 80.1785 125.109C80.1785 123.873 80.607 122.826 81.4682 121.973C82.3294 121.116 83.4049 120.692 84.6946 120.692C85.9844 120.692 87.0599 121.12 87.9211 121.973C88.7823 122.826 89.2108 123.873 89.2108 125.109C89.2108 126.345 88.7823 127.388 87.9211 128.245ZM82.7538 127.128C83.2648 127.652 83.9117 127.911 84.6988 127.911C85.4817 127.911 86.1327 127.652 86.6437 127.128C87.1546 126.605 87.4101 125.933 87.4101 125.105C87.4101 124.277 87.1546 123.601 86.6437 123.082C86.1327 122.563 85.4858 122.299 84.6988 122.299C83.9117 122.299 83.2648 122.559 82.7538 123.082C82.2429 123.605 81.9874 124.277 81.9874 125.105C81.9874 125.933 82.2429 126.609 82.7538 127.128Z" fill="white"/>
<path d="M102.356 119.105C103.143 119.761 103.534 120.77 103.534 122.138C103.534 123.502 103.134 124.503 102.331 125.138C101.531 125.773 100.299 126.09 98.6471 126.09H96.6486V129.395H94.7449V118.121H98.6141C100.324 118.121 101.573 118.45 102.356 119.105ZM101.012 123.758C101.396 123.354 101.585 122.765 101.585 121.982C101.585 121.199 101.342 120.651 100.86 120.329C100.378 120.008 99.6195 119.847 98.5853 119.847H96.6486V124.363H98.8572C99.9121 124.363 100.629 124.161 101.012 123.758Z" fill="white"/>
<path d="M108.858 119.105C108.631 118.879 108.52 118.611 108.52 118.298C108.52 117.985 108.631 117.717 108.858 117.49C109.085 117.264 109.352 117.152 109.666 117.152C109.979 117.152 110.247 117.264 110.473 117.49C110.7 117.717 110.811 117.985 110.811 118.298C110.811 118.611 110.7 118.879 110.473 119.105C110.247 119.332 109.979 119.443 109.666 119.443C109.352 119.443 109.085 119.332 108.858 119.105ZM110.551 129.395H108.747V120.816H110.551V129.395Z" fill="white"/>
<path d="M118.195 129.394H116.39V117.428H118.195V129.394Z" fill="white"/>
<path d="M131.212 128.245C130.351 129.098 129.275 129.526 127.986 129.526C126.696 129.526 125.62 129.098 124.759 128.245C123.898 127.392 123.469 126.345 123.469 125.109C123.469 123.873 123.898 122.826 124.759 121.973C125.62 121.116 126.696 120.692 127.986 120.692C129.275 120.692 130.351 121.12 131.212 121.973C132.073 122.826 132.502 123.873 132.502 125.109C132.502 126.345 132.073 127.388 131.212 128.245ZM126.045 127.128C126.556 127.652 127.203 127.911 127.99 127.911C128.773 127.911 129.424 127.652 129.935 127.128C130.446 126.605 130.701 125.933 130.701 125.105C130.701 124.277 130.446 123.601 129.935 123.082C129.424 122.563 128.777 122.299 127.99 122.299C127.203 122.299 126.556 122.559 126.045 123.082C125.534 123.605 125.278 124.277 125.278 125.105C125.278 125.933 125.534 126.609 126.045 127.128Z" fill="white"/>
<path d="M139.873 122.266V126.621C139.873 127.029 139.98 127.355 140.195 127.598C140.409 127.841 140.71 127.961 141.097 127.961C141.485 127.961 141.855 127.771 142.21 127.396L142.951 128.669C142.317 129.238 141.616 129.526 140.846 129.526C140.075 129.526 139.42 129.259 138.876 128.727C138.332 128.195 138.06 127.478 138.06 126.572V122.266H136.981V120.815H138.06V118.121H139.865V120.815H142.123V122.266H139.873Z" fill="white"/>
<path d="M0 78.728H13.6762C17.0139 78.728 19.9766 79.3749 22.5685 80.6729C25.1603 81.9709 27.1712 83.8005 28.601 86.1698C30.0308 88.5391 30.7478 91.2711 30.7478 94.3698C30.7478 97.4684 30.0308 100.205 28.601 102.57C27.1712 104.939 25.1603 106.773 22.5685 108.067C19.9766 109.36 17.0098 110.012 13.6762 110.012H0V78.728ZM13.4084 105.1C15.7036 105.1 17.7226 104.659 19.4657 103.781C21.2087 102.904 22.5479 101.651 23.4874 100.027C24.4268 98.4038 24.8966 96.5207 24.8966 94.3739C24.8966 92.2271 24.4268 90.344 23.4874 88.7205C22.5479 87.0969 21.2087 85.8443 19.4657 84.9666C17.7226 84.0889 15.7036 83.648 13.4084 83.648H5.81003V105.1H13.4084Z" fill="white"/>
<path d="M60.3789 105.141V110.012H36.9163V78.728H59.7526V83.5986H42.7263V91.7326H57.8324V96.5166H42.7263V105.141H60.3789Z" fill="white"/>
<path d="M87.1506 102.776H71.5089L68.4267 110.015H62.4395L76.5195 78.7319H82.2389L96.3601 110.015H90.2823L87.1506 102.776ZM85.2304 98.2141L79.3297 84.5378L73.4744 98.2141H85.2304Z" fill="white"/>
<path d="M100.336 78.728H106.146V105.096H122.505V110.012H100.336V78.728Z" fill="white"/>
<path d="M150.57 105.141V110.012H127.108V78.728H149.948V83.5986H132.922V91.7326H148.028V96.5166H132.922V105.141H150.57Z" fill="white"/>
<path d="M177.519 110.015L171.128 100.851C170.86 100.88 170.456 100.897 169.921 100.897H162.858V110.015H157.048V78.7319H169.921C172.632 78.7319 174.993 79.177 177.004 80.0711C179.015 80.9653 180.556 82.2468 181.632 83.9156C182.703 85.5845 183.239 87.5665 183.239 89.8616C183.239 92.2145 182.666 94.2418 181.516 95.9395C180.371 97.6372 178.722 98.9063 176.576 99.7387L183.778 110.015H177.519ZM175.422 85.2548C174.111 84.1835 172.187 83.6478 169.657 83.6478H162.862V96.1167H169.657C172.187 96.1167 174.111 95.5728 175.422 94.4849C176.732 93.3971 177.387 91.856 177.387 89.8575C177.387 87.8632 176.732 86.3262 175.422 85.2548Z" fill="white"/>
<path d="M99.9614 36.9868C102.385 36.9868 104.35 35.022 104.35 32.5984C104.35 30.1747 102.385 28.21 99.9614 28.21C97.5378 28.21 95.573 30.1747 95.573 32.5984C95.573 35.022 97.5378 36.9868 99.9614 36.9868Z" fill="white"/>
<path d="M126.634 36.1255L126.655 35.9977C126.646 36.0389 126.638 36.0801 126.634 36.1255ZM126.481 27.4805C126.486 27.5052 126.49 27.534 126.494 27.5588L126.481 27.4805ZM73.4372 27.4805L73.4248 27.5588C73.4289 27.534 73.433 27.5052 73.4372 27.4805Z" fill="white"/>
<path d="M99.9614 0C89.8783 0 80.8624 4.64803 74.937 11.9126H82.7703C82.8485 11.8467 82.9268 11.7808 83.0093 11.719C83.1741 11.5789 83.3389 11.4429 83.5078 11.3151C83.6727 11.1833 83.8416 11.0514 84.0147 10.9278C84.0476 10.899 84.0806 10.8742 84.1177 10.8495C84.4226 10.6229 84.7358 10.4004 85.0531 10.1861C85.3703 9.97182 85.6918 9.76579 86.0173 9.56801C86.1162 9.5062 86.2151 9.44439 86.3181 9.3867C86.4417 9.30841 86.5695 9.23425 86.6972 9.1642C86.8826 9.05706 87.068 8.94992 87.2576 8.85103C87.4471 8.74801 87.6367 8.64499 87.8303 8.55022C88.1064 8.41012 88.3784 8.27415 88.6586 8.14229C88.8234 8.064 88.9882 7.98983 89.1572 7.91566C89.4085 7.8044 89.6558 7.69727 89.9112 7.59425C90.1626 7.49124 90.4139 7.39234 90.6735 7.29757C91.0362 7.16571 91.4029 7.03797 91.7737 6.91847C91.9592 6.86078 92.1446 6.8031 92.33 6.74541C92.4825 6.70009 92.6349 6.65888 92.7874 6.61355C95.0785 5.9831 97.4849 5.64109 99.9614 5.64109C102.607 5.64109 105.174 6.0243 107.605 6.74953C107.766 6.79897 107.926 6.84843 108.087 6.89787C108.256 6.95144 108.429 7.00913 108.598 7.06682C108.961 7.19044 109.319 7.32229 109.674 7.46239C109.851 7.53244 110.028 7.60249 110.205 7.67666C110.378 7.74671 110.555 7.825 110.728 7.89917C110.848 7.95274 110.963 8.00219 111.079 8.05576C111.223 8.12581 111.367 8.19174 111.511 8.26179C111.705 8.35656 111.899 8.45133 112.092 8.55022C112.476 8.74389 112.855 8.94993 113.226 9.1642C113.411 9.26721 113.596 9.37434 113.778 9.48971C113.959 9.59685 114.14 9.71223 114.322 9.83173C114.503 9.94299 114.68 10.0584 114.857 10.182C115.034 10.2974 115.212 10.421 115.385 10.5487C115.574 10.6847 115.764 10.8207 115.949 10.9649C116.077 11.0555 116.205 11.1503 116.328 11.2492C116.493 11.377 116.658 11.5047 116.819 11.6407C117.437 12.1393 118.034 12.6708 118.603 13.2395C118.891 13.5114 119.172 13.7999 119.443 14.0965C119.72 14.3891 119.987 14.6858 120.243 14.9948C120.379 15.1473 120.507 15.2997 120.626 15.4563C120.758 15.6088 120.882 15.7654 121.001 15.922C121.211 16.1898 121.417 16.4659 121.615 16.7461C121.768 16.9562 121.916 17.1664 122.06 17.3848C122.303 17.7391 122.534 18.0976 122.752 18.4644C122.864 18.6457 122.975 18.8311 123.078 19.0165C123.185 19.202 123.292 19.3915 123.391 19.581C123.675 20.0961 123.939 20.6277 124.186 21.1675C124.343 21.5177 124.495 21.8721 124.644 22.2306C124.726 22.4325 124.808 22.6344 124.883 22.8404C124.961 23.0465 125.035 23.2525 125.105 23.4585C126.082 26.2193 126.609 29.1861 126.609 32.2807C126.609 32.5403 126.605 32.7999 126.597 33.0595C126.593 33.2696 126.584 33.4757 126.572 33.6858C126.568 33.7476 126.568 33.8094 126.56 33.8712C126.556 34.0031 126.547 34.135 126.535 34.2668C126.527 34.4152 126.514 34.5635 126.498 34.7118C126.49 34.8355 126.477 34.9632 126.461 35.0868C126.449 35.2269 126.432 35.3711 126.411 35.5112C126.395 35.6678 126.374 35.8203 126.35 35.9727C126.345 36.0428 126.333 36.1128 126.321 36.1788C126.3 36.3477 126.275 36.5167 126.242 36.6815C126.222 36.8339 126.193 36.9864 126.164 37.1348C126.131 37.3325 126.09 37.5262 126.049 37.724C126.008 37.9259 125.966 38.1237 125.917 38.3215C125.748 39.0508 125.55 39.7678 125.324 40.4724C125.122 41.0987 124.899 41.721 124.644 42.3226C124.64 42.3391 124.631 42.3555 124.627 42.3679C124.623 42.3761 124.619 42.3844 124.615 42.3926C124.499 42.6893 124.376 42.9777 124.24 43.2662C124.223 43.3033 124.207 43.3445 124.186 43.3816C124.129 43.5134 124.071 43.6412 124.005 43.773C123.997 43.7854 123.993 43.7977 123.984 43.8101C123.976 43.8307 123.968 43.8513 123.956 43.8719C123.947 43.8925 123.939 43.909 123.931 43.9255C123.857 44.0738 123.787 44.2222 123.712 44.3664C123.712 44.3705 123.712 44.3705 123.712 44.3705C123.708 44.3746 123.708 44.3746 123.708 44.3746C123.704 44.3787 123.704 44.3829 123.7 44.387C123.696 44.3952 123.692 44.3993 123.688 44.4076V44.4117C123.601 44.5848 123.515 44.7537 123.424 44.9185C123.342 45.0669 123.263 45.2152 123.181 45.3594C123.098 45.5078 123.012 45.6561 122.925 45.8004C122.761 46.0847 122.588 46.369 122.41 46.6451C121.949 47.3662 121.454 48.0625 120.927 48.7342C120.803 48.8908 120.68 49.0474 120.552 49.1998C120.519 49.241 120.486 49.2781 120.453 49.3152C120.424 49.3482 120.399 49.3853 120.371 49.4182C120.255 49.5624 120.132 49.7025 120.004 49.8426C119.851 50.024 119.691 50.2011 119.522 50.3783C119.365 50.5555 119.2 50.7286 119.027 50.8975C118.867 51.0706 118.698 51.2395 118.525 51.4043H118.52C118.347 51.5774 118.174 51.7422 117.997 51.8988C117.82 52.0636 117.643 52.2243 117.461 52.3809C117.28 52.5375 117.099 52.6941 116.913 52.8465C116.588 53.1185 116.25 53.3822 115.908 53.6377C115.908 53.6377 115.908 53.6377 115.904 53.6377C115.562 53.8932 115.216 54.1445 114.857 54.3794C114.371 54.7091 113.872 55.0222 113.366 55.3189C113.238 55.3931 113.11 55.4631 112.982 55.5373C112.818 55.6279 112.653 55.7186 112.488 55.8051C112.208 55.9535 111.923 56.1018 111.635 56.2378C111.347 56.3779 111.058 56.5139 110.766 56.6416C108.878 57.4904 106.872 58.1168 104.778 58.4959C104.395 58.57 104.004 58.6319 103.612 58.6813C103.587 58.6854 103.563 58.6896 103.538 58.6937C103.361 58.7143 103.18 58.739 102.998 58.7596C102.8 58.7802 102.599 58.8008 102.401 58.8214C102.269 58.8338 102.137 58.842 102.005 58.8544C101.877 58.8667 101.75 58.875 101.618 58.8791C101.544 58.8873 101.469 58.8915 101.395 58.8915C101.239 58.9038 101.078 58.9121 100.917 58.9121C100.6 58.9285 100.283 58.9326 99.9614 58.9326C99.6976 58.9326 99.4339 58.9285 99.1702 58.9203H99.1455C98.9271 58.9121 98.7128 58.9038 98.4985 58.8915C98.309 58.8832 98.1236 58.8708 97.934 58.8544C97.7362 58.842 97.5426 58.8255 97.3448 58.8049C97.147 58.7843 96.9533 58.7637 96.7555 58.739C96.5165 58.7143 96.2776 58.6813 96.0427 58.6442C95.7913 58.6113 95.5441 58.57 95.2969 58.5247C95.0743 58.4835 94.8518 58.4423 94.6334 58.397C94.4233 58.3558 94.2173 58.3104 94.0071 58.261C93.8011 58.2157 93.5909 58.1621 93.3849 58.1127C93.3767 58.1085 93.3643 58.1086 93.356 58.1044C93.1583 58.0509 92.9563 57.9973 92.7586 57.9437C92.7503 57.9396 92.738 57.9396 92.7256 57.9355C92.6308 57.9066 92.5361 57.8778 92.4413 57.8489C92.3424 57.8242 92.2476 57.7913 92.1528 57.7624C92.1405 57.7624 92.1322 57.7583 92.1199 57.7542C91.5677 57.5852 91.0238 57.3998 90.4881 57.1938C90.4263 57.1732 90.3604 57.1484 90.2986 57.1196C90.142 57.0619 89.9854 57.0001 89.8329 56.9342C89.8288 56.9301 89.8206 56.93 89.8165 56.9259C89.8082 56.9218 89.8041 56.9218 89.7959 56.9177C89.7629 56.9053 89.7299 56.8888 89.697 56.8765C89.6887 56.8724 89.6805 56.8683 89.6722 56.8683C89.5527 56.8188 89.4333 56.7652 89.3179 56.7158C89.219 56.6746 89.1242 56.6292 89.0294 56.588C89.0006 56.5757 88.9759 56.5633 88.947 56.551C88.9223 56.5386 88.8934 56.5262 88.8687 56.5139C88.8399 56.5015 88.811 56.4892 88.7822 56.4768C88.741 56.4562 88.7039 56.4397 88.6627 56.4191C88.6503 56.415 88.6421 56.4109 88.6297 56.4026C88.4526 56.3202 88.2795 56.2378 88.1064 56.1513C87.4348 55.8216 86.7796 55.459 86.1409 55.0717C85.9596 54.9645 85.7783 54.8491 85.597 54.7338C85.5929 54.7338 85.5887 54.7297 85.5887 54.7297C85.4116 54.6143 85.2344 54.4989 85.0613 54.3794C84.7069 54.1445 84.3567 53.8973 84.0147 53.6377C83.6892 53.3946 83.3677 53.1432 83.0546 52.8836C82.9145 52.7724 82.7785 52.6611 82.6466 52.5416C82.6384 52.5375 82.6302 52.5293 82.6219 52.521C82.4736 52.3974 82.3294 52.2697 82.1851 52.1378C82.0368 52.0101 81.8926 51.8782 81.7484 51.7381C81.6 51.6063 81.4599 51.4703 81.3198 51.3302C81.0355 51.0541 80.7594 50.7739 80.4957 50.4855C80.3556 50.3412 80.2237 50.197 80.096 50.0487C80.0259 49.9786 79.9641 49.9045 79.8982 49.8303H72.8767C73.227 50.366 73.5855 50.8893 73.9646 51.4002C74.6074 52.2697 75.2873 53.1062 76.0125 53.9056C76.8119 54.7874 77.6566 55.6279 78.5467 56.415C84.2495 61.4833 91.749 64.5614 99.9614 64.5614C117.758 64.5614 132.238 50.0816 132.238 32.2807C132.238 14.4839 117.758 0 99.9614 0ZM126.477 27.4802H126.481L126.486 27.5091C126.481 27.4967 126.481 27.4884 126.477 27.4802ZM126.634 36.1252C126.638 36.0799 126.646 36.0387 126.65 35.9975L126.638 36.1252H126.634ZM70.3508 19.4327C69.9058 20.4505 69.5143 21.4971 69.1723 22.5685C68.9127 23.3885 68.6861 24.2249 68.4924 25.0738C68.138 26.5984 67.8991 28.1683 67.7754 29.7754C67.759 29.9814 67.7466 30.1915 67.7342 30.4017C67.6971 31.0239 67.6807 31.6502 67.6807 32.2807C67.6807 32.4908 67.6807 32.6969 67.6889 32.907C67.7177 34.6129 67.8826 36.29 68.1751 37.9218H73.911C73.5154 36.1046 73.3094 34.2174 73.3094 32.2807C73.3094 32.0252 73.3135 31.7697 73.3218 31.5143C73.3259 31.2588 73.3382 31.0033 73.3547 30.752C73.3547 30.7272 73.3588 30.6984 73.3588 30.6695C73.3712 30.4553 73.3877 30.241 73.4042 30.0308C73.4206 29.8619 73.4371 29.693 73.4536 29.524C73.4701 29.3798 73.4866 29.2315 73.5031 29.0872C73.5607 28.5639 73.639 28.0447 73.7379 27.5297C73.7791 27.2989 73.8245 27.0723 73.8739 26.8456C74.1582 25.4364 74.562 24.0684 75.073 22.7498C75.1266 22.6056 75.1842 22.4613 75.2461 22.313C75.2749 22.2429 75.3038 22.1729 75.3326 22.1028C75.382 21.9792 75.4315 21.8556 75.4851 21.7361C75.5057 21.6825 75.5263 21.6331 75.551 21.5795C75.5716 21.526 75.5963 21.4765 75.621 21.4229C75.7117 21.2169 75.8065 21.015 75.9012 20.8131C75.9837 20.6442 76.0619 20.4793 76.1444 20.3145C76.2185 20.1703 76.2927 20.0302 76.3669 19.886C76.4451 19.7335 76.5276 19.5852 76.61 19.4327H70.3508ZM73.4248 27.5585L73.4371 27.4802H73.4413C73.433 27.5049 73.4289 27.5338 73.4248 27.5585Z" fill="white"/>
<path d="M88.1064 56.1514C88.3578 56.275 88.6133 56.3986 88.8687 56.514C88.6133 56.3986 88.3578 56.2791 88.1064 56.1514Z" fill="white"/>
<path d="M74.9122 23.1909C74.8216 23.4382 74.735 23.6895 74.6567 23.9409C74.735 23.6895 74.8216 23.4423 74.9122 23.1909Z" fill="white"/>
<path d="M89.6724 56.8682C89.6807 56.8723 89.689 56.8765 89.6974 56.8806C89.689 56.8723 89.6807 56.8723 89.6724 56.8682Z" fill="white"/>
<path d="M88.8687 56.5137C88.8975 56.526 88.9222 56.5384 88.951 56.5507C88.9222 56.5384 88.8934 56.526 88.8687 56.5137Z" fill="white"/>
<path d="M88.947 56.5508C89.186 56.6579 89.425 56.7651 89.6681 56.8681C89.4291 56.7651 89.186 56.662 88.947 56.5508Z" fill="white"/>
<path d="M75.2461 22.3174C75.1307 22.6058 75.0195 22.8984 74.9124 23.1951C75.0154 22.8984 75.1266 22.6058 75.2461 22.3174Z" fill="white"/>
<path d="M123.931 43.9251C123.939 43.9088 123.947 43.8884 123.955 43.8721C123.947 43.8925 123.939 43.9088 123.931 43.9251Z" fill="white"/>
<path d="M107.374 57.8738C107.42 57.8656 107.465 57.8532 107.51 57.8367C107.691 57.7831 107.873 57.7255 108.054 57.6678C107.827 57.7378 107.601 57.8037 107.374 57.8738ZM125.105 23.4586C125.253 23.8831 125.389 24.3157 125.517 24.7525C125.562 24.9091 125.608 25.0657 125.649 25.2222C125.682 25.3459 125.715 25.4736 125.748 25.5972C125.797 25.7868 125.843 25.9763 125.888 26.1659C125.979 26.5449 126.057 26.9282 126.131 27.3155C122.546 25.5931 118.928 24.1097 115.368 22.89C112.525 21.9134 110.955 21.5261 110.024 21.3159C106.744 20.5866 103.357 20.2652 99.9613 20.3599C96.5618 20.2652 93.1747 20.5866 89.8947 21.3159C88.9634 21.5261 87.3935 21.9134 84.5544 22.89C80.9901 24.1097 77.3722 25.5931 73.7873 27.3155C73.8409 27.0394 73.8945 26.7675 73.9563 26.4955C73.9604 26.4667 73.9686 26.4419 73.9769 26.4131C74.0016 26.2936 74.0263 26.1741 74.0552 26.0587C73.9892 26.3183 73.9274 26.582 73.8738 26.8458C73.8244 27.0724 73.7791 27.299 73.7379 27.5298C73.6472 28.0449 73.5648 28.564 73.503 29.0874C73.4865 29.2316 73.47 29.3799 73.4535 29.5241C73.4371 29.6931 73.4206 29.862 73.4041 30.031C73.3876 30.2411 73.3711 30.4554 73.3588 30.6697C73.3588 30.6985 73.3546 30.7273 73.3546 30.7521C73.3382 31.0034 73.3258 31.2589 73.3217 31.5144C73.3134 31.7699 73.3093 32.0253 73.3093 32.2808C73.3093 34.2175 73.5154 36.1047 73.9109 37.9219H73.9274C73.7956 37.3368 73.6884 36.7434 73.606 36.1418C75.5715 36.2407 77.5783 36.4179 79.5685 36.6692C83.0133 37.1019 84.5997 37.3244 86.0667 38.0496C89.8246 39.9121 91.4317 43.6001 92.606 46.2908C94.2419 50.0282 94.9465 54.0993 94.7158 58.4053C94.4232 58.3477 94.1348 58.2858 93.8463 58.2158C93.6321 58.1663 93.4178 58.1128 93.2076 58.0551C93.0882 58.0304 92.9687 57.9974 92.8533 57.9603C92.6184 57.8985 92.3835 57.8326 92.1528 57.7625C92.2476 57.7914 92.3423 57.8243 92.4412 57.849C92.536 57.8779 92.6308 57.9067 92.7255 57.9356C92.7379 57.9397 92.7503 57.9397 92.7585 57.9438C92.9563 57.9974 93.1582 58.051 93.356 58.1045C93.3642 58.1087 93.3766 58.1087 93.3848 58.1128C93.5909 58.1622 93.801 58.2158 94.007 58.2611C94.2172 58.3106 94.4232 58.3559 94.6334 58.3971C94.8517 58.4424 95.0743 58.4836 95.2968 58.5248C95.544 58.5702 95.7913 58.6114 96.0426 58.6443C96.2775 58.6814 96.5165 58.7144 96.7555 58.7391C96.9533 58.7638 97.1469 58.7844 97.3447 58.805C97.5425 58.8256 97.7362 58.8421 97.934 58.8545C98.1235 58.871 98.3089 58.8833 98.4985 58.8916C98.7127 58.9039 98.927 58.9122 99.1454 58.9204H99.1701C99.4338 58.9287 99.6976 58.9328 99.9613 58.9328C100.283 58.9328 100.6 58.9286 100.917 58.9122C101.078 58.9122 101.239 58.9039 101.395 58.8916C101.469 58.8916 101.544 58.8874 101.618 58.8792C101.75 58.8751 101.877 58.8668 102.005 58.8545C102.137 58.8421 102.269 58.8339 102.401 58.8215C102.598 58.8009 102.8 58.7803 102.998 58.7597C103.179 58.7391 103.361 58.7144 103.538 58.6938C103.563 58.6897 103.587 58.6855 103.612 58.6814C104.004 58.6278 104.391 58.566 104.778 58.496C105.569 58.3476 106.352 58.1664 107.119 57.948C107.164 57.9356 107.214 57.9232 107.259 57.9067C107.111 57.9479 106.962 57.9892 106.814 58.0263C106.6 58.0839 106.385 58.1375 106.167 58.1911C105.85 58.2652 105.528 58.3353 105.203 58.4012C104.972 54.0993 105.681 50.0241 107.312 46.2908C108.487 43.6001 110.094 39.9121 113.852 38.0496C115.319 37.3244 116.905 37.1019 120.35 36.6692C122.34 36.4179 124.347 36.2407 126.312 36.1418C126.263 36.4838 126.205 36.8217 126.144 37.1596C126.127 37.2585 126.106 37.3574 126.086 37.4563C126.024 37.79 125.95 38.1238 125.872 38.4535C125.781 38.8573 125.674 39.2528 125.562 39.6484C125.554 39.6814 125.542 39.7144 125.534 39.7473C125.53 39.7638 125.521 39.7844 125.517 39.8009C125.459 39.9946 125.406 40.1841 125.344 40.3778C125.266 40.6168 125.188 40.8558 125.105 41.0906C125.089 41.1442 125.068 41.1978 125.052 41.2472C125.15 40.9917 125.237 40.7321 125.324 40.4725C125.55 39.7679 125.748 39.0509 125.917 38.3216C125.962 38.1238 126.008 37.926 126.049 37.7241C126.09 37.5263 126.131 37.3327 126.164 37.1349C126.193 36.9865 126.222 36.8341 126.242 36.6816C126.271 36.5168 126.3 36.3478 126.321 36.1789C126.333 36.113 126.345 36.0429 126.35 35.9729C126.374 35.8204 126.395 35.6679 126.411 35.5114C126.432 35.3713 126.448 35.227 126.461 35.0869C126.477 34.9633 126.49 34.8356 126.498 34.712C126.514 34.5636 126.527 34.4153 126.535 34.2669C126.547 34.1351 126.556 34.0032 126.56 33.8714C126.568 33.8096 126.568 33.7477 126.572 33.6859C126.584 33.4758 126.593 33.2698 126.597 33.0596C126.605 32.8 126.609 32.5404 126.609 32.2808C126.609 29.1863 126.082 26.2194 125.105 23.4586ZM80.0589 33.2203C78.8474 33.2203 77.8667 32.2396 77.8667 31.0282C77.8667 29.8167 78.8474 28.836 80.0589 28.836C81.2703 28.836 82.251 29.8167 82.251 31.0282C82.251 32.2396 81.2703 33.2203 80.0589 33.2203ZM99.9613 39.4918C96.158 39.4918 93.0634 36.3973 93.0634 32.594C93.0634 28.7948 96.158 25.7002 99.9613 25.7002C103.76 25.7002 106.855 28.7948 106.855 32.594C106.855 36.3973 103.76 39.4918 99.9613 39.4918ZM119.546 33.2203C118.339 33.2203 117.354 32.2396 117.354 31.0282C117.354 29.8167 118.339 28.836 119.546 28.836C120.758 28.836 121.743 29.8167 121.743 31.0282C121.743 32.2396 120.758 33.2203 119.546 33.2203ZM107.51 57.8367C107.691 57.7831 107.873 57.7255 108.054 57.6678C107.827 57.7378 107.601 57.8037 107.374 57.8738C107.42 57.8656 107.465 57.8532 107.51 57.8367ZM107.374 57.8738C107.42 57.8656 107.465 57.8532 107.51 57.8367C107.691 57.7831 107.873 57.7255 108.054 57.6678C107.827 57.7378 107.601 57.8037 107.374 57.8738ZM74.1582 25.6508C74.1623 25.6302 74.1664 25.6137 74.1747 25.5931C74.2035 25.4654 74.2365 25.3376 74.2735 25.2099C74.2323 25.3541 74.1911 25.5024 74.1582 25.6508Z" fill="white"/>
<path d="M75.4233 21.8926C75.3656 22.0327 75.3038 22.1728 75.2461 22.317C75.3038 22.1728 75.3615 22.0327 75.4233 21.8926Z" fill="white"/>
<path d="M80.17 14.4175C79.453 15.2086 78.7855 16.0451 78.1674 16.9228H53.106V14.4175H80.17Z" fill="white"/>
<path d="M69.1723 22.5684C68.9127 23.3884 68.682 24.2248 68.4883 25.0737H26.4666V22.5684H69.1723Z" fill="white"/>
<path d="M67.6807 32.2809C67.6807 32.491 67.6848 32.697 67.6889 32.9072H43.0767V30.4019H67.7301C67.6972 31.0241 67.6807 31.6545 67.6807 32.2809Z" fill="white"/>
<path d="M74.595 40.4311H23.9612V37.9258H73.9233C74.1087 38.7746 74.3312 39.6111 74.595 40.4311Z" fill="white"/>
<path d="M77.9573 47.3246H45.895V44.8193H76.4409C76.9024 45.6847 77.4052 46.5211 77.9573 47.3246Z" fill="white"/>
<path d="M76.0124 53.9057H61.2524V51.4004H73.9645C74.6073 52.2698 75.2872 53.1063 76.0124 53.9057Z" fill="white"/>
<path d="M48.4046 17.5495C49.4424 17.5495 50.2836 16.7082 50.2836 15.6705C50.2836 14.6328 49.4424 13.7915 48.4046 13.7915C47.3669 13.7915 46.5256 14.6328 46.5256 15.6705C46.5256 16.7082 47.3669 17.5495 48.4046 17.5495Z" fill="white"/>
<path d="M21.765 25.7004C22.8027 25.7004 23.644 24.8591 23.644 23.8214C23.644 22.7836 22.8027 21.9424 21.765 21.9424C20.7272 21.9424 19.886 22.7836 19.886 23.8214C19.886 24.8591 20.7272 25.7004 21.765 25.7004Z" fill="white"/>
<path d="M38.3751 33.5329C39.4128 33.5329 40.2541 32.6916 40.2541 31.6539C40.2541 30.6162 39.4128 29.7749 38.3751 29.7749C37.3373 29.7749 36.4961 30.6162 36.4961 31.6539C36.4961 32.6916 37.3373 33.5329 38.3751 33.5329Z" fill="white"/>
<path d="M18.9464 41.0578C19.9841 41.0578 20.8254 40.2165 20.8254 39.1788C20.8254 38.1411 19.9841 37.2998 18.9464 37.2998C17.9086 37.2998 17.0674 38.1411 17.0674 39.1788C17.0674 40.2165 17.9086 41.0578 18.9464 41.0578Z" fill="white"/>
<path d="M40.8846 47.9513C41.9223 47.9513 42.7636 47.1101 42.7636 46.0724C42.7636 45.0346 41.9223 44.1934 40.8846 44.1934C39.8469 44.1934 39.0056 45.0346 39.0056 46.0724C39.0056 47.1101 39.8469 47.9513 40.8846 47.9513Z" fill="white"/>
<path d="M56.2418 54.5319C57.2795 54.5319 58.1208 53.6906 58.1208 52.6529C58.1208 51.6152 57.2795 50.7739 56.2418 50.7739C55.204 50.7739 54.3628 51.6152 54.3628 52.6529C54.3628 53.6906 55.204 54.5319 56.2418 54.5319Z" fill="white"/>
</svg>
