<svg width="152" height="108" viewBox="0 0 152 108" fill="none" xmlns="http://www.w3.org/2000/svg">
<path d="M82.6338 0C74.2985 0 66.8455 3.84232 61.9472 9.84764H68.4226C68.4873 9.79314 68.5521 9.73864 68.6202 9.68754C68.7565 9.57173 68.8927 9.45933 69.0324 9.35373C69.1686 9.24473 69.3083 9.13573 69.4513 9.03354C69.4786 9.00969 69.5058 8.98925 69.5365 8.96882C69.7886 8.78147 70.0474 8.59752 70.3097 8.42039C70.572 8.24327 70.8377 8.07295 71.1068 7.90945C71.1886 7.85835 71.2703 7.80726 71.3555 7.75957C71.4576 7.69485 71.5633 7.63354 71.6689 7.57564C71.8221 7.48707 71.9754 7.39851 72.1321 7.31675C72.2888 7.2316 72.4455 7.14643 72.6056 7.06809C72.8338 6.95228 73.0586 6.83987 73.2902 6.73087C73.4265 6.66615 73.5627 6.60484 73.7024 6.54353C73.9102 6.45156 74.1146 6.36299 74.3258 6.27783C74.5336 6.19268 74.7413 6.11092 74.9559 6.03258C75.2557 5.92358 75.5588 5.81798 75.8654 5.71919C76.0187 5.67151 76.172 5.62382 76.3253 5.57614C76.4513 5.53867 76.5773 5.5046 76.7034 5.46713C78.5973 4.94597 80.5866 4.66324 82.6338 4.66324C84.8206 4.66324 86.9427 4.98002 88.9525 5.57953C89.0853 5.62041 89.2181 5.66129 89.351 5.70217C89.4906 5.74645 89.6337 5.79414 89.7734 5.84183C90.0731 5.94402 90.3695 6.05302 90.6624 6.16883C90.8089 6.22674 90.9554 6.28464 91.1018 6.34595C91.2449 6.40386 91.3914 6.46858 91.5344 6.5299C91.6332 6.57418 91.7286 6.61506 91.824 6.65934C91.9432 6.71725 92.0624 6.77175 92.1816 6.82965C92.3417 6.908 92.5018 6.98634 92.6619 7.06809C92.9787 7.22819 93.2921 7.39851 93.5987 7.57564C93.7519 7.66079 93.9052 7.74935 94.0551 7.84473C94.205 7.93329 94.3549 8.02867 94.5047 8.12746C94.6546 8.21943 94.8011 8.31481 94.9476 8.417C95.094 8.51237 95.2405 8.61456 95.3836 8.72015C95.5403 8.83256 95.6969 8.94497 95.8502 9.06419C95.9558 9.13913 96.0614 9.21748 96.1636 9.29923C96.2999 9.40482 96.4361 9.51041 96.569 9.62282C97.0799 10.035 97.5738 10.4744 98.0439 10.9445C98.2823 11.1693 98.514 11.4077 98.7388 11.653C98.967 11.8948 99.1884 12.1401 99.3996 12.3956C99.512 12.5216 99.6176 12.6476 99.7164 12.7771C99.8254 12.9031 99.9276 13.0325 100.026 13.162C100.2 13.3834 100.37 13.6116 100.534 13.8432C100.66 14.017 100.783 14.1907 100.902 14.3712C101.103 14.6642 101.294 14.9605 101.474 15.2637C101.566 15.4136 101.658 15.5668 101.743 15.7201C101.832 15.8734 101.92 16.0301 102.002 16.1868C102.237 16.6126 102.455 17.052 102.659 17.4982C102.789 17.7878 102.915 18.0807 103.038 18.377C103.106 18.5439 103.174 18.7109 103.235 18.8812C103.3 19.0515 103.361 19.2218 103.419 19.3921C103.542 19.743 103.654 20.1006 103.76 20.4617C103.797 20.5911 103.835 20.7206 103.869 20.85C103.896 20.9522 103.923 21.0578 103.95 21.16C103.991 21.3167 104.029 21.4734 104.066 21.6301C104.141 21.9434 104.206 22.2602 104.267 22.5804C101.304 21.1566 98.313 19.9303 95.3699 18.922C93.0196 18.1148 91.7218 17.7946 90.952 17.6208C88.2405 17.0179 85.4406 16.7522 82.6338 16.8306C79.8236 16.7522 77.0236 17.0179 74.3121 17.6208C73.5423 17.7946 72.2445 18.1148 69.8976 18.922C66.9511 19.9303 63.9604 21.1566 60.9969 22.5804C61.0412 22.3522 61.0854 22.1274 61.1365 21.9026C61.1399 21.8787 61.1468 21.8583 61.1536 21.8344C61.174 21.7357 61.1944 21.6369 61.2183 21.5415C61.1638 21.7561 61.1127 21.9741 61.0684 22.1921C61.3034 21.0271 61.6373 19.8963 62.0596 18.8062C62.1039 18.687 62.1516 18.5678 62.2027 18.4452C62.2266 18.3873 62.2504 18.3293 62.2742 18.2714C62.3151 18.1693 62.356 18.0671 62.4003 17.9683C62.4173 17.924 62.4343 17.8831 62.4548 17.8388C62.4718 17.7946 62.4922 17.7537 62.5127 17.7094C62.5876 17.5391 62.666 17.3722 62.7443 17.2053C62.8124 17.0656 62.8772 16.9294 62.9453 16.7931C63.0066 16.6739 63.0679 16.5581 63.1292 16.4388C63.1939 16.3128 63.2621 16.1902 63.3302 16.0642H58.156C57.7881 16.9055 57.4645 17.7707 57.1818 18.6564C56.9672 19.3342 56.7799 20.0257 56.6198 20.7274C56.3268 21.9877 56.1293 23.2855 56.0271 24.614C56.0135 24.7843 56.0032 24.958 55.993 25.1317C55.9624 25.6461 55.9487 26.1639 55.9487 26.685C55.9487 26.8587 55.9487 27.0291 55.9555 27.2028C55.9794 28.613 56.1156 29.9994 56.3575 31.3483H61.0991H61.1127C61.0037 30.8646 60.9151 30.3741 60.847 29.8767C62.4718 29.9585 64.1307 30.105 65.7759 30.3127C68.6236 30.6704 69.935 30.8543 71.1477 31.4539C74.2542 32.9935 75.5827 36.0422 76.5535 38.2665C77.9058 41.356 78.4883 44.7214 78.2975 48.281C78.0557 48.2333 77.8172 48.1822 77.5788 48.1243C77.4017 48.0834 77.2245 48.0392 77.0508 47.9915C76.952 47.971 76.8533 47.9438 76.7579 47.9131C76.5637 47.862 76.3696 47.8075 76.1788 47.7496C76.1686 47.7496 76.1618 47.7462 76.1515 47.7428C75.6951 47.6032 75.2455 47.4499 74.8026 47.2796C74.7515 47.2625 74.6971 47.2421 74.646 47.2183C74.5165 47.1706 74.3871 47.1195 74.261 47.065C74.2576 47.0616 74.2508 47.0616 74.2474 47.0581C74.2406 47.0547 74.2372 47.0548 74.2304 47.0513C74.2031 47.0411 74.1759 47.0275 74.1486 47.0173C74.1418 47.0139 74.135 47.0105 74.1282 47.0105C74.0294 46.9696 73.9306 46.9253 73.8353 46.8844C73.7535 46.8504 73.6752 46.8129 73.5968 46.7788C73.573 46.7686 73.5525 46.7584 73.5287 46.7482C73.5082 46.738 73.4844 46.7277 73.464 46.7175C73.4401 46.7073 73.4163 46.6971 73.3924 46.6869C73.3584 46.6698 73.3277 46.6562 73.2936 46.6392C73.2834 46.6358 73.2766 46.6324 73.2664 46.6256C73.1199 46.5574 72.9769 46.4893 72.8338 46.4178C72.2786 46.1453 71.737 45.8455 71.209 45.5253C71.0591 45.4367 70.9092 45.3414 70.7594 45.246C70.7559 45.246 70.7526 45.2426 70.7526 45.2426C70.6061 45.1472 70.4596 45.0518 70.3165 44.9531C70.0236 44.7589 69.7341 44.5545 69.4513 44.3399C69.1822 44.1389 68.9165 43.9312 68.6577 43.7166C68.5419 43.6246 68.4294 43.5326 68.3204 43.4338C68.3136 43.4304 68.3068 43.4236 68.3 43.4168C68.1774 43.3146 68.0582 43.209 67.9389 43.1C67.8163 42.9944 67.6971 42.8854 67.5779 42.7696C67.4552 42.6606 67.3394 42.5482 67.2236 42.4324C66.9886 42.2042 66.7603 41.9725 66.5423 41.7341C66.4265 41.6149 66.3175 41.4957 66.2119 41.373C66.154 41.3151 66.1029 41.2538 66.0484 41.1925H60.2441C60.5336 41.6353 60.83 42.0679 61.1434 42.4903C61.6747 43.209 62.2368 43.9005 62.8363 44.5613C63.4971 45.2903 64.1954 45.9852 64.9312 46.6358C69.6455 50.8255 75.845 53.37 82.6338 53.37C97.3456 53.37 109.315 41.4003 109.315 26.685C109.315 11.9732 97.3456 0 82.6338 0ZM60.7073 22.7167H60.7108C60.7039 22.7371 60.7005 22.761 60.6971 22.7814L60.7073 22.7167ZM60.7618 24.0451C60.8095 23.6125 60.8743 23.1833 60.956 22.7576C60.8811 23.1833 60.8129 23.6125 60.7618 24.0451ZM66.1813 27.4617C65.1798 27.4617 64.3691 26.651 64.3691 25.6495C64.3691 24.6481 65.1798 23.8373 66.1813 23.8373C67.1827 23.8373 67.9934 24.6481 67.9934 25.6495C67.9934 26.651 67.1827 27.4617 66.1813 27.4617ZM104.557 22.7167L104.56 22.7405C104.557 22.7303 104.557 22.7235 104.553 22.7167H104.557ZM98.8239 23.8373C99.8254 23.8373 100.639 24.6481 100.639 25.6495C100.639 26.651 99.8254 27.4617 98.8239 27.4617C97.8259 27.4617 97.0118 26.651 97.0118 25.6495C97.0118 24.6481 97.8259 23.8373 98.8239 23.8373ZM76.9316 26.9439C76.9316 23.8033 79.4897 21.2452 82.6338 21.2452C85.7744 21.2452 88.3325 23.8033 88.3325 26.9439C88.3325 30.0879 85.7744 32.6461 82.6338 32.6461C79.4897 32.6461 76.9316 30.0879 76.9316 26.9439ZM87.6444 48.138C87.9408 48.0664 88.2371 47.9915 88.5301 47.9097C88.2371 47.9915 87.9442 48.0698 87.6444 48.138ZM103.038 34.9862C103.034 34.9998 103.027 35.0134 103.024 35.0237C103.021 35.0305 103.017 35.0373 103.014 35.0441C102.918 35.2894 102.816 35.5278 102.704 35.7662C102.69 35.7969 102.676 35.831 102.659 35.8616C102.612 35.9706 102.564 36.0762 102.51 36.1852C102.503 36.1954 102.499 36.2057 102.493 36.2159C102.486 36.2329 102.479 36.2499 102.469 36.267C102.462 36.284 102.455 36.2976 102.448 36.3112C102.387 36.4339 102.329 36.5565 102.268 36.6757C102.268 36.6791 102.268 36.6791 102.268 36.6791C102.264 36.6825 102.264 36.6825 102.264 36.6825C102.261 36.6859 102.261 36.6893 102.257 36.6928C102.254 36.6996 102.251 36.703 102.247 36.7098V36.7132C102.176 36.8563 102.104 36.9959 102.029 37.1322C101.961 37.2548 101.896 37.3774 101.828 37.4966C101.76 37.6193 101.689 37.7419 101.617 37.8611C101.481 38.0962 101.338 38.3312 101.191 38.5594C100.81 39.1555 100.401 39.7312 99.965 40.2864C99.8628 40.4159 99.7607 40.5453 99.6551 40.6713C99.6278 40.7054 99.6006 40.736 99.5733 40.7667C99.5495 40.794 99.529 40.8246 99.5052 40.8519C99.4098 40.9711 99.3076 41.0869 99.202 41.2027C99.076 41.3526 98.9432 41.4991 98.8035 41.6455C98.6741 41.792 98.5378 41.9351 98.3947 42.0747C98.2619 42.2178 98.1222 42.3574 97.9792 42.4937H97.9758C97.8327 42.6368 97.6896 42.773 97.5432 42.9025C97.3967 43.0387 97.2502 43.1716 97.1003 43.301C96.9505 43.4304 96.8006 43.5599 96.6473 43.6859C96.3782 43.9107 96.0989 44.1287 95.8162 44.3399C95.8162 44.3399 95.8162 44.3399 95.8128 44.3399C95.53 44.5511 95.2439 44.7589 94.9476 44.9531C94.5456 45.2256 94.1334 45.4844 93.7145 45.7297C93.6089 45.791 93.5033 45.8489 93.3977 45.9102C93.2614 45.9852 93.1252 46.0601 92.9889 46.1316C92.7573 46.2543 92.5223 46.3769 92.2838 46.4893C92.0454 46.6051 91.8069 46.7175 91.5651 46.8231C90.6045 47.2557 89.6031 47.61 88.5744 47.8961C88.605 47.8893 88.6357 47.8791 88.6663 47.8689C88.5437 47.9029 88.4211 47.937 88.2984 47.9676C88.1213 48.0153 87.9442 48.0596 87.7637 48.1039C87.5014 48.1652 87.2357 48.2231 86.9666 48.2776C86.7758 44.7214 87.3617 41.3526 88.7106 38.2665C89.6814 36.0422 91.0099 32.9935 94.1164 31.4539C95.3291 30.8543 96.6405 30.6704 99.4882 30.3127C101.133 30.105 102.792 29.9585 104.417 29.8767C104.376 30.1595 104.329 30.4388 104.277 30.7181C104.264 30.7998 104.247 30.8816 104.23 30.9634C104.179 31.2393 104.117 31.5152 104.053 31.7877C103.978 32.1215 103.889 32.4485 103.797 32.7755C103.79 32.8027 103.78 32.83 103.773 32.8573C103.77 32.8709 103.763 32.8879 103.76 32.9015C103.712 33.0616 103.668 33.2183 103.617 33.3784C103.552 33.576 103.487 33.7735 103.419 33.9677C103.405 34.012 103.388 34.0563 103.375 34.0971C103.457 33.886 103.528 33.6714 103.6 33.4568C103.433 33.9745 103.249 34.4889 103.038 34.9862ZM104.683 29.8631C104.686 29.8256 104.693 29.7916 104.696 29.7575L104.686 29.8631H104.683Z" fill="#414142"/>
<path d="M88.8741 47.8109C89.024 47.7667 89.1739 47.719 89.3237 47.6713C89.1364 47.7292 88.9491 47.7837 88.7617 47.8416C88.7992 47.8348 88.8366 47.8246 88.8741 47.8109Z" fill="#414142"/>
<path d="M61.3986 20.8398C61.3645 20.959 61.3305 21.0816 61.3032 21.2043C61.3066 21.1872 61.31 21.1736 61.3169 21.1566C61.3407 21.051 61.3679 20.9454 61.3986 20.8398Z" fill="#414142"/>
<path d="M88.2983 47.9676C88.421 47.937 88.5436 47.9029 88.6662 47.8688C88.6288 47.8825 88.5879 47.8927 88.5504 47.9029C88.4653 47.9233 88.3835 47.9472 88.2983 47.9676Z" fill="#FFFF00"/>
<path d="M88.7617 47.8416C88.9491 47.7837 89.1364 47.7292 89.3237 47.6713C89.1739 47.719 89.024 47.7667 88.8741 47.8109C88.8366 47.8246 88.7992 47.8348 88.7617 47.8416Z" fill="#FFFF00"/>
<path d="M62.4547 17.8388C62.4717 17.7946 62.4922 17.7537 62.5126 17.7094C62.4581 17.8388 62.4036 17.9683 62.3491 18.0977C62.3798 18.0092 62.4172 17.924 62.4547 17.8388Z" fill="#FFFF00"/>
<path d="M82.6335 4.65643C84.8272 4.65643 86.9493 4.97662 88.9522 5.57953C86.9425 4.98002 84.8204 4.66323 82.6335 4.66323C80.5863 4.66323 78.597 4.94596 76.7031 5.46713C78.5902 4.93915 80.5795 4.65643 82.6335 4.65643Z" fill="#FFFF00"/>
<path d="M102.659 17.4982C102.792 17.7878 102.921 18.0807 103.037 18.377C102.915 18.0807 102.789 17.7878 102.659 17.4982Z" fill="#FFFF00"/>
<path d="M36.3587 104.846L35.4254 106.965H33.7461L37.8541 97.6452H39.5334L43.6414 106.965H41.9621L41.0288 104.846H36.3587ZM40.3884 103.392L38.6955 99.5528L37.0025 103.392H40.3884Z" fill="#C15810"/>
<path d="M52.2391 103.712V99.873H53.7311V106.965H52.2391V105.67C51.9972 106.106 51.6668 106.447 51.2444 106.696C50.8221 106.944 50.3656 107.07 49.8785 107.07C49.078 107.07 48.4308 106.825 47.9369 106.338C47.443 105.851 47.1978 105.142 47.1978 104.219V99.873H48.6897V103.766C48.6897 105.074 49.2313 105.725 50.3179 105.725C50.8323 105.725 51.2819 105.555 51.6634 105.211C52.0483 104.87 52.2391 104.373 52.2391 103.712Z" fill="#C15810"/>
<path d="M60.4005 101.072V104.672C60.4005 105.01 60.4891 105.279 60.6662 105.48C60.8433 105.681 61.092 105.779 61.4122 105.779C61.7324 105.779 62.0389 105.623 62.3319 105.313L62.945 106.365C62.4205 106.835 61.8414 107.074 61.2044 107.074C60.5674 107.074 60.0258 106.852 59.5762 106.413C59.1265 105.974 58.9017 105.381 58.9017 104.632V101.072H58.0093V99.873H58.9017V97.6452H60.3937V99.873H62.2604V101.072H60.4005Z" fill="#C15810"/>
<path d="M72.6802 106.015C71.9683 106.72 71.0793 107.074 70.0131 107.074C68.9469 107.074 68.0579 106.72 67.346 106.015C66.6341 105.309 66.2798 104.444 66.2798 103.422C66.2798 102.4 66.6341 101.535 67.346 100.83C68.0579 100.122 68.9469 99.7708 70.0131 99.7708C71.0793 99.7708 71.9683 100.125 72.6802 100.83C73.3922 101.535 73.7464 102.4 73.7464 103.422C73.7464 104.444 73.3922 105.306 72.6802 106.015ZM68.4087 105.091C68.8311 105.524 69.3659 105.739 70.0165 105.739C70.6637 105.739 71.2019 105.524 71.6243 105.091C72.0467 104.659 72.2579 104.104 72.2579 103.419C72.2579 102.734 72.0467 102.176 71.6243 101.746C71.2019 101.317 70.6671 101.099 70.0165 101.099C69.3659 101.099 68.8311 101.314 68.4087 101.746C67.9864 102.179 67.7751 102.734 67.7751 103.419C67.7751 104.104 67.9864 104.662 68.4087 105.091Z" fill="#C15810"/>
<path d="M84.6123 98.4593C85.2629 99.0009 85.5865 99.8355 85.5865 100.966C85.5865 102.094 85.2561 102.922 84.5918 103.446C83.931 103.971 82.9125 104.233 81.5466 104.233H79.8945V106.965H78.3208V97.6452H81.5193C82.9329 97.6452 83.9651 97.9177 84.6123 98.4593ZM83.5018 102.305C83.8186 101.971 83.9753 101.484 83.9753 100.837C83.9753 100.19 83.7743 99.7367 83.3758 99.471C82.9772 99.2053 82.3505 99.0725 81.4955 99.0725H79.8945V102.806H81.7203C82.5923 102.806 83.185 102.639 83.5018 102.305Z" fill="#C15810"/>
<path d="M89.9878 98.4593C89.8005 98.272 89.7085 98.0506 89.7085 97.7917C89.7085 97.5328 89.8005 97.3114 89.9878 97.1241C90.1752 96.9367 90.3966 96.8447 90.6555 96.8447C90.9143 96.8447 91.1357 96.9367 91.3231 97.1241C91.5104 97.3114 91.6024 97.5328 91.6024 97.7917C91.6024 98.0506 91.5104 98.272 91.3231 98.4593C91.1357 98.6467 90.9143 98.7386 90.6555 98.7386C90.3966 98.7386 90.1752 98.6467 89.9878 98.4593ZM91.3878 106.965H89.8958V99.873H91.3878V106.965Z" fill="#C15810"/>
<path d="M97.7063 106.965H96.2144V97.073H97.7063V106.965Z" fill="#C15810"/>
<path d="M108.467 106.015C107.755 106.72 106.866 107.074 105.8 107.074C104.734 107.074 103.845 106.72 103.133 106.015C102.421 105.309 102.066 104.444 102.066 103.422C102.066 102.4 102.421 101.535 103.133 100.83C103.845 100.122 104.734 99.7708 105.8 99.7708C106.866 99.7708 107.755 100.125 108.467 100.83C109.179 101.535 109.533 102.4 109.533 103.422C109.533 104.444 109.179 105.306 108.467 106.015ZM104.195 105.091C104.618 105.524 105.153 105.739 105.803 105.739C106.45 105.739 106.989 105.524 107.411 105.091C107.833 104.659 108.044 104.104 108.044 103.419C108.044 102.734 107.833 102.176 107.411 101.746C106.989 101.317 106.454 101.099 105.803 101.099C105.153 101.099 104.618 101.314 104.195 101.746C103.773 102.179 103.562 102.734 103.562 103.419C103.562 104.104 103.773 104.662 104.195 105.091Z" fill="#C15810"/>
<path d="M115.627 101.072V104.672C115.627 105.01 115.716 105.279 115.893 105.48C116.07 105.681 116.319 105.779 116.639 105.779C116.959 105.779 117.266 105.623 117.558 105.313L118.172 106.365C117.647 106.835 117.068 107.074 116.431 107.074C115.794 107.074 115.252 106.852 114.803 106.413C114.353 105.974 114.128 105.381 114.128 104.632V101.072H113.236V99.873H114.128V97.6452H115.62V99.873H117.487V101.072H115.627Z" fill="#C15810"/>
<path d="M0 65.0809H11.3055C14.0646 65.0809 16.5138 65.6157 18.6563 66.6887C20.7989 67.7617 22.4612 69.2741 23.6432 71.2327C24.8252 73.1914 25.4179 75.4497 25.4179 78.0113C25.4179 80.5728 24.8252 82.8346 23.6432 84.7898C22.4612 86.7485 20.7989 88.2643 18.6563 89.3338C16.5138 90.4034 14.0612 90.9416 11.3055 90.9416H0V65.0809ZM11.0841 86.8813C12.9814 86.8813 14.6505 86.5168 16.0914 85.7913C17.5323 85.0657 18.6393 84.0302 19.416 82.6881C20.1926 81.3461 20.5809 79.7894 20.5809 78.0147C20.5809 76.24 20.1926 74.6833 19.416 73.3412C18.6393 71.9991 17.5323 70.9636 16.0914 70.2381C14.6505 69.5125 12.9814 69.1481 11.0841 69.1481H4.8029V86.8813H11.0841Z" fill="#053556"/>
<path d="M49.9126 86.9154V90.9416H30.5171V65.0809H49.3949V69.1072H35.32V75.8312H47.8075V79.786H35.32V86.9154H49.9126Z" fill="#053556"/>
<path d="M72.0434 84.9601H59.113L56.5651 90.945H51.6157L63.2551 65.0843H67.983L79.6564 90.945H74.6321L72.0434 84.9601ZM70.456 81.1893L65.5782 69.8838L60.7378 81.1893H70.456Z" fill="#053556"/>
<path d="M82.9434 65.0809H87.7462V86.8779H101.269V90.9416H82.9434V65.0809Z" fill="#053556"/>
<path d="M124.47 86.9154V90.9416H105.074V65.0809H123.955V69.1072H109.881V75.8312H122.368V79.786H109.881V86.9154H124.47Z" fill="#053556"/>
<path d="M146.747 90.945L141.464 83.3694C141.243 83.3932 140.909 83.4069 140.466 83.4069H134.628V90.945H129.825V65.0843H140.466C142.707 65.0843 144.659 65.4522 146.321 66.1914C147.984 66.9306 149.258 67.9899 150.147 69.3695C151.032 70.749 151.475 72.3874 151.475 74.2848C151.475 76.2298 151.002 77.9057 150.051 79.3091C149.104 80.7125 147.742 81.7616 145.967 82.4497L151.921 90.945H146.747ZM145.013 70.4765C143.93 69.5909 142.339 69.1481 140.248 69.1481H134.631V79.4555H140.248C142.339 79.4555 143.93 79.0059 145.013 78.1066C146.097 77.2074 146.638 75.9334 146.638 74.2814C146.638 72.6327 146.097 71.3621 145.013 70.4765Z" fill="#053556"/>
<path d="M82.6336 30.575C84.6371 30.575 86.2613 28.9508 86.2613 26.9473C86.2613 24.9438 84.6371 23.3196 82.6336 23.3196C80.6301 23.3196 79.0059 24.9438 79.0059 26.9473C79.0059 28.9508 80.6301 30.575 82.6336 30.575Z" fill="#C15810"/>
<path d="M104.682 29.8631L104.699 29.7575C104.693 29.7916 104.686 29.8256 104.682 29.8631ZM104.556 22.7167C104.56 22.7371 104.563 22.761 104.567 22.7814L104.556 22.7167ZM60.707 22.7167L60.6968 22.7814C60.7002 22.761 60.7036 22.7371 60.707 22.7167Z" fill="#2A2A2A"/>
<path d="M82.6338 0C74.2985 0 66.8455 3.84232 61.9472 9.84764H68.4226C68.4873 9.79314 68.5521 9.73864 68.6202 9.68754C68.7565 9.57173 68.8927 9.45933 69.0324 9.35373C69.1686 9.24473 69.3083 9.13573 69.4513 9.03354C69.4786 9.00969 69.5058 8.98925 69.5365 8.96882C69.7886 8.78147 70.0474 8.59752 70.3097 8.42039C70.572 8.24327 70.8377 8.07295 71.1068 7.90945C71.1886 7.85835 71.2703 7.80726 71.3555 7.75957C71.4576 7.69485 71.5633 7.63354 71.6689 7.57564C71.8221 7.48707 71.9754 7.39851 72.1321 7.31675C72.2888 7.2316 72.4455 7.14643 72.6056 7.06809C72.8338 6.95228 73.0586 6.83987 73.2902 6.73087C73.4265 6.66615 73.5627 6.60484 73.7024 6.54353C73.9102 6.45156 74.1146 6.36299 74.3258 6.27783C74.5336 6.19268 74.7413 6.11092 74.9559 6.03258C75.2557 5.92358 75.5588 5.81798 75.8654 5.71919C76.0187 5.67151 76.172 5.62382 76.3253 5.57614C76.4513 5.53867 76.5773 5.5046 76.7034 5.46713C78.5973 4.94597 80.5866 4.66324 82.6338 4.66324C84.8206 4.66324 86.9427 4.98002 88.9525 5.57953C89.0853 5.62041 89.2181 5.66129 89.351 5.70217C89.4906 5.74645 89.6337 5.79414 89.7734 5.84183C90.0731 5.94402 90.3695 6.05302 90.6624 6.16883C90.8089 6.22674 90.9554 6.28464 91.1018 6.34595C91.2449 6.40386 91.3914 6.46858 91.5344 6.5299C91.6332 6.57418 91.7286 6.61506 91.824 6.65934C91.9432 6.71725 92.0624 6.77175 92.1816 6.82965C92.3417 6.908 92.5018 6.98634 92.6619 7.06809C92.9787 7.22819 93.2921 7.39851 93.5987 7.57564C93.7519 7.66079 93.9052 7.74935 94.0551 7.84473C94.205 7.93329 94.3549 8.02867 94.5047 8.12746C94.6546 8.21943 94.8011 8.31481 94.9476 8.417C95.094 8.51237 95.2405 8.61456 95.3836 8.72015C95.5403 8.83256 95.6969 8.94497 95.8502 9.06419C95.9558 9.13913 96.0614 9.21748 96.1636 9.29923C96.2999 9.40482 96.4361 9.51041 96.569 9.62282C97.0799 10.035 97.5738 10.4744 98.0439 10.9445C98.2823 11.1693 98.514 11.4077 98.7388 11.653C98.967 11.8948 99.1884 12.1401 99.3996 12.3956C99.512 12.5216 99.6176 12.6476 99.7164 12.7771C99.8254 12.9031 99.9276 13.0325 100.026 13.162C100.2 13.3834 100.37 13.6116 100.534 13.8432C100.66 14.017 100.783 14.1907 100.902 14.3712C101.103 14.6642 101.294 14.9605 101.474 15.2637C101.566 15.4136 101.658 15.5668 101.743 15.7201C101.832 15.8734 101.92 16.0301 102.002 16.1868C102.237 16.6126 102.455 17.052 102.659 17.4982C102.789 17.7878 102.915 18.0807 103.038 18.377C103.106 18.5439 103.174 18.7109 103.235 18.8812C103.3 19.0515 103.361 19.2218 103.419 19.3921C104.226 21.6743 104.662 24.1269 104.662 26.685C104.662 26.8996 104.659 27.1142 104.652 27.3288C104.649 27.5025 104.642 27.6728 104.632 27.8466C104.628 27.8977 104.628 27.9488 104.621 27.9999C104.618 28.1089 104.611 28.2179 104.601 28.3269C104.594 28.4495 104.584 28.5721 104.57 28.6947C104.564 28.7969 104.553 28.9025 104.54 29.0047C104.53 29.1205 104.516 29.2398 104.499 29.3556C104.485 29.485 104.468 29.611 104.448 29.7371C104.444 29.795 104.434 29.8529 104.424 29.9074C104.407 30.0471 104.386 30.1867 104.359 30.323C104.342 30.449 104.318 30.575 104.294 30.6977C104.267 30.8612 104.233 31.0213 104.199 31.1848C104.165 31.3517 104.131 31.5152 104.09 31.6787C103.95 32.2816 103.787 32.8743 103.6 33.4568C103.433 33.9745 103.249 34.4889 103.038 34.9862C103.034 34.9998 103.027 35.0134 103.024 35.0237C103.021 35.0305 103.017 35.0373 103.014 35.0441C102.918 35.2894 102.816 35.5278 102.704 35.7662C102.69 35.7969 102.676 35.831 102.659 35.8616C102.612 35.9706 102.564 36.0762 102.51 36.1852C102.503 36.1954 102.499 36.2057 102.493 36.2159C102.486 36.2329 102.479 36.2499 102.469 36.267C102.462 36.284 102.455 36.2976 102.448 36.3112C102.387 36.4339 102.329 36.5565 102.268 36.6757C102.268 36.6791 102.268 36.6791 102.268 36.6791C102.264 36.6825 102.264 36.6825 102.264 36.6825C102.261 36.6859 102.261 36.6893 102.257 36.6928C102.254 36.6996 102.251 36.703 102.247 36.7098V36.7132C102.176 36.8563 102.104 36.9959 102.029 37.1322C101.961 37.2548 101.896 37.3774 101.828 37.4966C101.76 37.6193 101.689 37.7419 101.617 37.8611C101.481 38.0962 101.338 38.3312 101.191 38.5594C100.81 39.1555 100.401 39.7312 99.965 40.2864C99.8628 40.4159 99.7607 40.5453 99.6551 40.6713C99.6278 40.7054 99.6006 40.736 99.5733 40.7667C99.5495 40.794 99.529 40.8246 99.5052 40.8519C99.4098 40.9711 99.3076 41.0869 99.202 41.2027C99.076 41.3526 98.9432 41.4991 98.8035 41.6455C98.6741 41.792 98.5378 41.9351 98.3947 42.0747C98.2619 42.2178 98.1222 42.3574 97.9792 42.4937H97.9758C97.8327 42.6368 97.6896 42.773 97.5432 42.9025C97.3967 43.0387 97.2502 43.1716 97.1003 43.301C96.9505 43.4304 96.8006 43.5599 96.6473 43.6859C96.3782 43.9107 96.0989 44.1287 95.8162 44.3399C95.8162 44.3399 95.8162 44.3399 95.8128 44.3399C95.53 44.5511 95.2439 44.7589 94.9476 44.9531C94.5456 45.2256 94.1334 45.4844 93.7145 45.7297C93.6089 45.791 93.5033 45.8489 93.3977 45.9102C93.2614 45.9852 93.1252 46.0601 92.9889 46.1316C92.7573 46.2543 92.5223 46.3769 92.2838 46.4893C92.0454 46.6051 91.8069 46.7175 91.5651 46.8231C90.005 47.5248 88.3461 48.0426 86.6157 48.3559C86.2989 48.4173 85.9753 48.4684 85.6517 48.5092C85.6313 48.5126 85.6109 48.5161 85.5904 48.5195C85.444 48.5365 85.2941 48.5569 85.1442 48.574C84.9807 48.591 84.8138 48.608 84.6503 48.6251C84.5413 48.6353 84.4323 48.6421 84.3233 48.6523C84.2177 48.6625 84.1121 48.6693 84.0031 48.6727C83.9418 48.6795 83.8805 48.683 83.8191 48.683C83.6897 48.6932 83.5569 48.7 83.424 48.7C83.1617 48.7136 82.8995 48.717 82.6338 48.717C82.4158 48.717 82.1977 48.7136 81.9797 48.7068H81.9593C81.7788 48.7 81.6016 48.6932 81.4245 48.683C81.2678 48.6762 81.1145 48.6659 80.9578 48.6523C80.7943 48.6421 80.6342 48.6285 80.4707 48.6114C80.3072 48.5944 80.1471 48.5774 79.9836 48.5569C79.7861 48.5365 79.5885 48.5093 79.3944 48.4786C79.1866 48.4513 78.9822 48.4173 78.7778 48.3798C78.5939 48.3457 78.4099 48.3117 78.2294 48.2742C78.0557 48.2401 77.8854 48.2027 77.7116 48.1618C77.5413 48.1243 77.3676 48.08 77.1973 48.0392C77.1905 48.0358 77.1803 48.0358 77.1734 48.0324C77.0099 47.9881 76.843 47.9438 76.6795 47.8995C76.6727 47.8961 76.6625 47.8961 76.6523 47.8927C76.5739 47.8689 76.4956 47.845 76.4172 47.8212C76.3355 47.8007 76.2571 47.7735 76.1788 47.7496C76.1686 47.7496 76.1618 47.7462 76.1515 47.7428C75.6951 47.6032 75.2455 47.4499 74.8026 47.2796C74.7515 47.2625 74.6971 47.2421 74.646 47.2183C74.5165 47.1706 74.3871 47.1195 74.261 47.065C74.2576 47.0616 74.2508 47.0616 74.2474 47.0581C74.2406 47.0547 74.2372 47.0548 74.2304 47.0513C74.2031 47.0411 74.1759 47.0275 74.1486 47.0173C74.1418 47.0139 74.135 47.0105 74.1282 47.0105C74.0294 46.9696 73.9306 46.9253 73.8353 46.8844C73.7535 46.8504 73.6752 46.8129 73.5968 46.7788C73.573 46.7686 73.5525 46.7584 73.5287 46.7482C73.5082 46.738 73.4844 46.7277 73.464 46.7175C73.4401 46.7073 73.4163 46.6971 73.3924 46.6869C73.3584 46.6698 73.3277 46.6562 73.2936 46.6392C73.2834 46.6358 73.2766 46.6324 73.2664 46.6256C73.1199 46.5574 72.9769 46.4893 72.8338 46.4178C72.2786 46.1453 71.737 45.8455 71.209 45.5253C71.0591 45.4367 70.9092 45.3414 70.7594 45.246C70.7559 45.246 70.7526 45.2426 70.7526 45.2426C70.6061 45.1472 70.4596 45.0518 70.3165 44.9531C70.0236 44.7589 69.7341 44.5545 69.4513 44.3399C69.1822 44.1389 68.9165 43.9312 68.6577 43.7166C68.5419 43.6246 68.4294 43.5326 68.3204 43.4338C68.3136 43.4304 68.3068 43.4236 68.3 43.4168C68.1774 43.3146 68.0582 43.209 67.9389 43.1C67.8163 42.9944 67.6971 42.8854 67.5779 42.7696C67.4552 42.6606 67.3394 42.5482 67.2236 42.4324C66.9886 42.2042 66.7603 41.9725 66.5423 41.7341C66.4265 41.6149 66.3175 41.4957 66.2119 41.373C66.154 41.3151 66.1029 41.2538 66.0484 41.1925H60.2441C60.5336 41.6353 60.83 42.0679 61.1434 42.4903C61.6747 43.209 62.2368 43.9005 62.8363 44.5613C63.4971 45.2903 64.1954 45.9852 64.9312 46.6358C69.6455 50.8255 75.845 53.37 82.6338 53.37C97.3456 53.37 109.315 41.4003 109.315 26.685C109.315 11.9732 97.3456 0 82.6338 0ZM104.553 22.7167H104.557L104.56 22.7405C104.557 22.7303 104.557 22.7235 104.553 22.7167ZM104.683 29.8631C104.686 29.8256 104.693 29.7916 104.696 29.7575L104.686 29.8631H104.683ZM58.156 16.0642C57.7881 16.9055 57.4645 17.7707 57.1818 18.6564C56.9672 19.3342 56.7799 20.0257 56.6198 20.7274C56.3268 21.9877 56.1293 23.2855 56.0271 24.614C56.0135 24.7843 56.0032 24.958 55.993 25.1317C55.9624 25.6461 55.9487 26.1639 55.9487 26.685C55.9487 26.8587 55.9487 27.0291 55.9555 27.2028C55.9794 28.613 56.1156 29.9994 56.3575 31.3483H61.0991C60.7721 29.8461 60.6017 28.286 60.6017 26.685C60.6017 26.4738 60.6052 26.2626 60.612 26.0514C60.6154 25.8403 60.6256 25.6291 60.6392 25.4213C60.6392 25.4008 60.6426 25.377 60.6426 25.3532C60.6528 25.176 60.6665 24.9989 60.6801 24.8252C60.6937 24.6855 60.7073 24.5459 60.721 24.4062C60.7346 24.287 60.7482 24.1644 60.7618 24.0451C60.8095 23.6125 60.8743 23.1833 60.956 22.7576C60.9901 22.5668 61.0275 22.3795 61.0684 22.1921C61.3034 21.0271 61.6373 19.8963 62.0596 18.8062C62.1039 18.687 62.1516 18.5678 62.2027 18.4452C62.2266 18.3873 62.2504 18.3293 62.2742 18.2714C62.3151 18.1693 62.356 18.0671 62.4003 17.9683C62.4173 17.924 62.4343 17.8831 62.4548 17.8388C62.4718 17.7946 62.4922 17.7537 62.5127 17.7094C62.5876 17.5391 62.666 17.3722 62.7443 17.2053C62.8124 17.0656 62.8772 16.9294 62.9453 16.7931C63.0066 16.6739 63.0679 16.5581 63.1292 16.4388C63.1939 16.3128 63.2621 16.1902 63.3302 16.0642H58.156ZM60.6971 22.7814L60.7073 22.7167H60.7108C60.7039 22.7371 60.7005 22.761 60.6971 22.7814Z" fill="#053556"/>
<path d="M72.8335 46.4177C73.0413 46.5199 73.2525 46.6221 73.4637 46.7175C73.2525 46.6221 73.0413 46.5233 72.8335 46.4177Z" fill="#053556"/>
<path d="M61.9265 19.1707C61.8516 19.3751 61.7801 19.5829 61.7153 19.7907C61.7801 19.5829 61.8516 19.3785 61.9265 19.1707Z" fill="#053556"/>
<path d="M74.1279 47.0105C74.1346 47.0138 74.1413 47.0172 74.148 47.0205C74.1413 47.0138 74.1346 47.0138 74.1279 47.0105Z" fill="#053556"/>
<path d="M73.4639 46.7175C73.4877 46.7277 73.5082 46.7379 73.532 46.7482C73.5082 46.7379 73.4843 46.7277 73.4639 46.7175Z" fill="#053556"/>
<path d="M73.5283 46.7482C73.7259 46.8367 73.9235 46.9253 74.1244 47.0105C73.9269 46.9253 73.7259 46.8402 73.5283 46.7482Z" fill="#053556"/>
<path d="M62.2027 18.4486C62.1073 18.687 62.0153 18.9289 61.9268 19.1741C62.0119 18.9289 62.1039 18.687 62.2027 18.4486Z" fill="#053556"/>
<path d="M102.448 36.3113C102.455 36.2976 102.462 36.2806 102.469 36.267C102.462 36.284 102.455 36.2976 102.448 36.3113Z" fill="#053556"/>
<path d="M88.7615 47.8416C88.799 47.8348 88.8364 47.8246 88.8739 47.811C89.0238 47.7667 89.1737 47.719 89.3235 47.6713C89.1362 47.7292 88.9489 47.7837 88.7615 47.8416ZM103.419 19.3921C103.541 19.743 103.654 20.1006 103.759 20.4617C103.797 20.5911 103.834 20.7206 103.868 20.85C103.896 20.9522 103.923 21.0578 103.95 21.16C103.991 21.3167 104.029 21.4734 104.066 21.6301C104.141 21.9434 104.206 22.2602 104.267 22.5804C101.304 21.1566 98.3128 19.9303 95.3697 18.9221C93.0194 18.1148 91.7216 17.7946 90.9518 17.6208C88.2403 17.0179 85.4404 16.7522 82.6336 16.8306C79.8234 16.7522 77.0234 17.0179 74.3119 17.6208C73.5421 17.7946 72.2443 18.1148 69.8974 18.9221C66.9509 19.9303 63.9602 21.1566 60.9967 22.5804C61.041 22.3522 61.0853 22.1274 61.1364 21.9026C61.1398 21.8787 61.1466 21.8583 61.1534 21.8344C61.1738 21.7357 61.1943 21.6369 61.2181 21.5415C61.1636 21.7561 61.1125 21.9741 61.0682 22.1921C61.0273 22.3795 60.9899 22.5668 60.9558 22.7576C60.8809 23.1833 60.8128 23.6125 60.7617 24.0451C60.748 24.1644 60.7344 24.287 60.7208 24.4062C60.7072 24.5459 60.6935 24.6855 60.6799 24.8252C60.6663 24.9989 60.6527 25.176 60.6424 25.3532C60.6424 25.377 60.639 25.4008 60.639 25.4213C60.6254 25.6291 60.6152 25.8403 60.6118 26.0515C60.605 26.2626 60.6016 26.4738 60.6016 26.685C60.6016 28.286 60.7719 29.8461 61.0989 31.3483H61.1125C61.0035 30.8646 60.9149 30.3741 60.8468 29.8767C62.4716 29.9585 64.1305 30.105 65.7757 30.3127C68.6234 30.6704 69.9348 30.8544 71.1475 31.4539C74.254 32.9935 75.5825 36.0422 76.5533 38.2665C77.9056 41.356 78.4881 44.7214 78.2973 48.281C78.0555 48.2333 77.817 48.1822 77.5786 48.1243C77.4015 48.0835 77.2243 48.0392 77.0506 47.9915C76.9518 47.971 76.8531 47.9438 76.7577 47.9131C76.5635 47.862 76.3694 47.8076 76.1786 47.7496C76.257 47.7735 76.3353 47.8007 76.4171 47.8212C76.4954 47.845 76.5737 47.8689 76.6521 47.8927C76.6623 47.8961 76.6725 47.8961 76.6793 47.8995C76.8428 47.9438 77.0097 47.9881 77.1732 48.0324C77.1801 48.0358 77.1903 48.0358 77.1971 48.0392C77.3674 48.08 77.5411 48.1243 77.7115 48.1618C77.8852 48.2027 78.0555 48.2401 78.2292 48.2742C78.4097 48.3117 78.5937 48.3457 78.7776 48.3798C78.982 48.4173 79.1864 48.4513 79.3942 48.4786C79.5883 48.5093 79.7859 48.5365 79.9835 48.5569C80.147 48.5774 80.307 48.5944 80.4706 48.6114C80.6341 48.6285 80.7941 48.6421 80.9577 48.6523C81.1143 48.6659 81.2676 48.6762 81.4243 48.683C81.6014 48.6932 81.7786 48.7 81.9591 48.7068H81.9795C82.1975 48.7136 82.4156 48.717 82.6336 48.717C82.8993 48.717 83.1615 48.7136 83.4238 48.7C83.5567 48.7 83.6895 48.6932 83.819 48.683C83.8803 48.683 83.9416 48.6796 84.0029 48.6727C84.1119 48.6693 84.2175 48.6625 84.3231 48.6523C84.4321 48.6421 84.5411 48.6353 84.6501 48.6251C84.8136 48.608 84.9805 48.591 85.144 48.574C85.2939 48.5569 85.4438 48.5365 85.5902 48.5195C85.6107 48.5161 85.6311 48.5126 85.6516 48.5092C85.9752 48.465 86.2954 48.4139 86.6155 48.356C87.2696 48.2333 87.9168 48.0835 88.5503 47.9029C88.5878 47.8927 88.6287 47.8825 88.6661 47.8689C88.5435 47.9029 88.4209 47.937 88.2982 47.9677C88.1211 48.0153 87.944 48.0596 87.7635 48.1039C87.5012 48.1652 87.2355 48.2231 86.9664 48.2776C86.7756 44.7214 87.3615 41.3526 88.7104 38.2665C89.6812 36.0422 91.0097 32.9935 94.1162 31.4539C95.3289 30.8544 96.6403 30.6704 99.488 30.3127C101.133 30.105 102.792 29.9585 104.417 29.8767C104.376 30.1595 104.328 30.4388 104.277 30.7181C104.264 30.7999 104.247 30.8816 104.23 30.9634C104.178 31.2393 104.117 31.5152 104.052 31.7877C103.977 32.1215 103.889 32.4485 103.797 32.7755C103.79 32.8028 103.78 32.83 103.773 32.8573C103.77 32.8709 103.763 32.8879 103.759 32.9015C103.712 33.0616 103.668 33.2183 103.616 33.3784C103.552 33.576 103.487 33.7736 103.419 33.9677C103.405 34.012 103.388 34.0563 103.375 34.0972C103.456 33.886 103.528 33.6714 103.599 33.4568C103.787 32.8743 103.95 32.2816 104.09 31.6787C104.127 31.5152 104.165 31.3517 104.199 31.1848C104.233 31.0213 104.267 30.8612 104.294 30.6977C104.318 30.575 104.342 30.449 104.359 30.323C104.383 30.1867 104.407 30.0471 104.424 29.9074C104.434 29.8529 104.444 29.795 104.448 29.7371C104.468 29.611 104.485 29.485 104.499 29.3556C104.516 29.2398 104.529 29.1205 104.54 29.0047C104.553 28.9025 104.563 28.7969 104.57 28.6948C104.584 28.5721 104.594 28.4495 104.601 28.3269C104.611 28.2179 104.618 28.1089 104.621 27.9999C104.628 27.9488 104.628 27.8977 104.631 27.8466C104.642 27.6729 104.649 27.5025 104.652 27.3288C104.659 27.1142 104.662 26.8996 104.662 26.685C104.662 24.1269 104.226 21.6744 103.419 19.3921ZM66.1811 27.4617C65.1796 27.4617 64.3689 26.651 64.3689 25.6495C64.3689 24.6481 65.1796 23.8374 66.1811 23.8374C67.1826 23.8374 67.9932 24.6481 67.9932 25.6495C67.9932 26.651 67.1826 27.4617 66.1811 27.4617ZM82.6336 32.6461C79.4895 32.6461 76.9314 30.0879 76.9314 26.9439C76.9314 23.8033 79.4895 21.2452 82.6336 21.2452C85.7742 21.2452 88.3323 23.8033 88.3323 26.9439C88.3323 30.0879 85.7742 32.6461 82.6336 32.6461ZM98.8237 27.4617C97.8257 27.4617 97.0116 26.651 97.0116 25.6495C97.0116 24.6481 97.8257 23.8374 98.8237 23.8374C99.8252 23.8374 100.639 24.6481 100.639 25.6495C100.639 26.651 99.8252 27.4617 98.8237 27.4617ZM88.8739 47.811C89.0238 47.7667 89.1737 47.719 89.3235 47.6713C89.1362 47.7292 88.9489 47.7837 88.7615 47.8416C88.799 47.8348 88.8364 47.8246 88.8739 47.811ZM88.7615 47.8416C88.799 47.8348 88.8364 47.8246 88.8739 47.811C89.0238 47.7667 89.1737 47.719 89.3235 47.6713C89.1362 47.7292 88.9489 47.7837 88.7615 47.8416ZM61.3033 21.2043C61.3067 21.1872 61.3101 21.1736 61.3169 21.1566C61.3407 21.051 61.368 20.9454 61.3986 20.8398C61.3646 20.959 61.3305 21.0816 61.3033 21.2043Z" fill="#414142"/>
<path d="M62.3491 18.0977C62.3014 18.2135 62.2503 18.3293 62.2026 18.4486C62.2503 18.3293 62.298 18.2135 62.3491 18.0977Z" fill="#053556"/>
<path d="M66.273 11.9187C65.6803 12.5727 65.1285 13.2642 64.6176 13.9897H43.9004V11.9187H66.273Z" fill="#C15810"/>
<path d="M57.1819 18.6564C56.9673 19.3342 56.7765 20.0257 56.6164 20.7274H21.8789V18.6564H57.1819Z" fill="#053556"/>
<path d="M55.9484 26.685C55.9484 26.8587 55.9518 27.0291 55.9552 27.2028H35.6094V25.1317H55.9893C55.9621 25.6461 55.9484 26.1673 55.9484 26.685Z" fill="#053556"/>
<path d="M61.6643 33.4227H19.8076V31.3517H61.1091C61.2624 32.0534 61.4463 32.7449 61.6643 33.4227Z" fill="#053556"/>
<path d="M64.4439 39.1215H37.9395V37.0504H63.1904C63.5719 37.7657 63.9875 38.4572 64.4439 39.1215Z" fill="#C15810"/>
<path d="M62.8362 44.5613H50.6348V42.4903H61.1432C61.6746 43.209 62.2367 43.9005 62.8362 44.5613Z" fill="#053556"/>
<path d="M40.0137 14.5075C40.8716 14.5075 41.567 13.812 41.567 12.9542C41.567 12.0963 40.8716 11.4009 40.0137 11.4009C39.1559 11.4009 38.4604 12.0963 38.4604 12.9542C38.4604 13.812 39.1559 14.5075 40.0137 14.5075Z" fill="#053556"/>
<path d="M17.9922 21.2452C18.8501 21.2452 19.5455 20.5497 19.5455 19.6919C19.5455 18.834 18.8501 18.1386 17.9922 18.1386C17.1344 18.1386 16.439 18.834 16.439 19.6919C16.439 20.5497 17.1344 21.2452 17.9922 21.2452Z" fill="#C15810"/>
<path d="M31.7227 27.7205C32.5806 27.7205 33.276 27.0251 33.276 26.1673C33.276 25.3094 32.5806 24.614 31.7227 24.614C30.8649 24.614 30.1694 25.3094 30.1694 26.1673C30.1694 27.0251 30.8649 27.7205 31.7227 27.7205Z" fill="#C15810"/>
<path d="M15.6622 33.9405C16.52 33.9405 17.2154 33.245 17.2154 32.3872C17.2154 31.5293 16.52 30.8339 15.6622 30.8339C14.8043 30.8339 14.1089 31.5293 14.1089 32.3872C14.1089 33.245 14.8043 33.9405 15.6622 33.9405Z" fill="#C15810"/>
<path d="M33.7974 39.6392C34.6553 39.6392 35.3507 38.9438 35.3507 38.0859C35.3507 37.2281 34.6553 36.5327 33.7974 36.5327C32.9396 36.5327 32.2441 37.2281 32.2441 38.0859C32.2441 38.9438 32.9396 39.6392 33.7974 39.6392Z" fill="#053556"/>
<path d="M46.4927 45.0791C47.3506 45.0791 48.046 44.3837 48.046 43.5258C48.046 42.668 47.3506 41.9725 46.4927 41.9725C45.6349 41.9725 44.9395 42.668 44.9395 43.5258C44.9395 44.3837 45.6349 45.0791 46.4927 45.0791Z" fill="#C15810"/>
</svg>
